# Blender 4.2.0
# www.blender.org
mtllib RankWallBannerENV.mtl
o EnvRankBAnnerWall
v -0.751071 0.902215 -0.071463
v 0.751071 0.902215 -0.071463
v -0.751071 0.861321 -0.058176
v 0.751071 0.861321 -0.058176
v -0.751071 0.836046 -0.023389
v 0.751071 0.836046 -0.023389
v -0.751071 0.836046 0.019610
v 0.751071 0.836046 0.019610
v -0.751071 0.861321 0.054397
v 0.751071 0.861321 0.054397
v -0.751071 0.902215 0.067685
v 0.751071 0.902215 0.067685
v -0.751071 0.943110 0.054397
v 0.751071 0.943110 0.054397
v -0.751071 0.968384 0.019610
v 0.751071 0.968384 0.019610
v -0.751071 0.968384 -0.023389
v 0.751071 0.968384 -0.023389
v -0.751071 0.943110 -0.058176
v 0.751071 0.943110 -0.058176
v -0.702695 -0.603636 0.000745
v 0.710587 -0.603636 0.000745
v -0.702695 0.809645 0.000745
v 0.710587 0.809645 0.000745
v 0.710587 0.632985 0.000745
v -0.702695 0.632985 0.000745
v -0.702695 -0.426653 0.000745
v 0.710587 -0.426653 0.000745
v -0.702695 0.017362 0.000745
v -0.702695 0.188647 0.000745
v 0.710587 0.188647 0.000745
v 0.710587 0.017362 0.000745
v -0.525074 0.809645 0.000745
v -0.525074 0.632985 0.000745
v -0.525074 -0.426653 0.000745
v -0.525074 0.188647 0.000745
v -0.525074 -0.791248 0.000745
v -0.525074 0.017362 0.000745
v 0.534887 -0.791248 0.000745
v 0.534887 0.017362 0.000745
v 0.534887 0.809645 0.000745
v 0.534887 0.632985 0.000745
v 0.534887 -0.426653 0.000745
v 0.534887 0.188647 0.000745
v 0.092447 -0.959987 0.000745
v -0.076871 -0.959987 0.000745
v -0.076871 0.809645 0.000745
v 0.092447 0.809645 0.000745
v 0.092447 0.632985 0.000745
v -0.076871 0.632985 0.000745
v 0.092447 -0.426653 0.000745
v -0.076871 -0.426653 0.000745
v -0.076871 0.188647 0.000745
v 0.092447 0.188647 0.000745
v -0.076871 0.017362 0.000745
v 0.092447 0.017362 0.000745
v -0.702695 0.861508 0.076893
v 0.710587 0.861508 0.076893
v -0.525074 0.861508 0.076893
v 0.534887 0.861508 0.076893
v -0.076871 0.861508 0.076893
v 0.092447 0.861508 0.076893
v -0.702695 0.939604 0.076893
v 0.710587 0.939604 0.076893
v -0.525074 0.939604 0.076893
v 0.534887 0.939604 0.076893
v -0.076871 0.939604 0.076893
v 0.092447 0.939604 0.076893
v -0.702695 0.985765 -0.004305
v 0.710587 0.985765 -0.004305
v -0.525074 0.985765 -0.004305
v 0.534887 0.985765 -0.004305
v -0.076871 0.985765 -0.004305
v 0.092447 0.985765 -0.004305
v -0.702695 -0.603636 -0.009355
v 0.710587 -0.603636 -0.009355
v -0.702695 0.809645 -0.009355
v 0.710587 0.809645 -0.009355
v 0.710587 0.632985 -0.009355
v -0.702695 0.632985 -0.009355
v -0.702695 -0.426653 -0.009355
v 0.710587 -0.426653 -0.009355
v -0.702695 0.017362 -0.009355
v -0.702695 0.188647 -0.009355
v 0.710587 0.188647 -0.009355
v 0.710587 0.017362 -0.009355
v -0.525074 0.809645 -0.009355
v -0.525074 0.632985 -0.009355
v -0.525074 -0.426653 -0.009355
v -0.525074 0.188647 -0.009355
v -0.525074 -0.791248 -0.009355
v -0.525074 0.017362 -0.009355
v 0.534887 -0.791248 -0.009355
v 0.534887 0.017362 -0.009355
v 0.534887 0.809645 -0.009355
v 0.534887 0.632985 -0.009355
v 0.534887 -0.426653 -0.009355
v 0.534887 0.188647 -0.009355
v 0.092447 -0.959987 -0.009355
v -0.076871 -0.959987 -0.009355
v -0.076871 0.809645 -0.009355
v 0.092447 0.809645 -0.009355
v 0.092447 0.632985 -0.009355
v -0.076871 0.632985 -0.009355
v 0.092447 -0.426653 -0.009355
v -0.076871 -0.426653 -0.009355
v -0.076871 0.188647 -0.009355
v 0.092447 0.188647 -0.009355
v -0.076871 0.017362 -0.009355
v 0.092447 0.017362 -0.009355
v -0.702695 0.861508 -0.076893
v 0.710587 0.861508 -0.076893
v -0.525074 0.861508 -0.076893
v 0.534887 0.861508 -0.076893
v -0.076871 0.861508 -0.076893
v 0.092447 0.861508 -0.076893
v -0.702695 0.939604 -0.076893
v 0.710587 0.939604 -0.076893
v -0.525074 0.939604 -0.076893
v 0.534887 0.939604 -0.076893
v -0.076871 0.939604 -0.076893
v 0.092447 0.939604 -0.076893
vn -0.0000 -0.0002 -1.0000
vn -0.0001 -0.0002 -1.0000
vn -0.0000 -0.5876 -0.8091
vn 0.0002 -0.5876 -0.8091
vn -0.0000 -0.5879 -0.8089
vn -0.0001 -0.5879 -0.8089
vn -0.0000 -0.9510 -0.3092
vn 0.0001 -0.9510 -0.3092
vn -0.0000 -0.9511 -0.3089
vn -0.0000 -0.9511 0.3089
vn -0.0000 -0.9510 0.3092
vn -0.0000 -0.5879 0.8089
vn -0.0000 -0.5876 0.8091
vn -0.0001 -0.5876 0.8091
vn -0.0000 -0.0002 1.0000
vn -0.0001 -0.0002 1.0000
vn -0.0000 0.0002 1.0000
vn -0.0000 0.5877 0.8091
vn -0.0000 0.5879 0.8089
vn -0.0000 0.9510 0.3092
vn -0.0000 0.9511 0.3088
vn -0.0000 0.9511 -0.3088
vn 1.0000 -0.0000 -0.0000
vn -0.0000 0.9510 -0.3092
vn -0.0001 0.9510 -0.3092
vn -0.0000 0.5879 -0.8089
vn -0.0000 0.5877 -0.8091
vn -0.0000 0.0002 -1.0000
vn -1.0000 -0.0000 -0.0000
vn -0.0000 -0.0000 1.0000
vn -0.1021 -0.0000 0.9948
vn -0.2271 -0.2458 0.9423
vn -0.0000 -0.1122 0.9937
vn -0.1023 -0.0000 0.9948
vn -0.1002 -0.0000 0.9950
vn -0.1923 -0.2052 0.9596
vn -0.0000 -0.1095 0.9940
vn -0.0000 -0.1086 0.9941
vn -0.0000 -0.1120 0.9937
vn -0.0000 -0.3160 0.9488
vn -0.1001 -0.0000 0.9950
vn -0.0000 -0.1085 0.9941
vn -0.0000 -0.5056 0.8628
vn -0.2271 -0.2457 0.9424
vn -0.0000 -0.3159 0.9488
vn -0.0000 -0.1121 0.9937
vn -0.0000 -0.5055 0.8628
vn -0.0000 0.5470 0.8371
vn -0.0000 1.0000 -0.0000
vn 0.0002 1.0000 -0.0000
vn -0.0000 0.5471 0.8371
vn -0.0000 -0.0000 -1.0000
vn -0.0000 -0.0996 -0.9950
vn -0.2464 -0.2184 -0.9442
vn -0.1105 -0.0000 -0.9939
vn -0.1084 -0.0000 -0.9941
vn -0.1107 -0.0000 -0.9939
vn -0.2067 -0.2207 -0.9532
vn -0.0000 -0.0972 -0.9953
vn -0.0000 -0.0995 -0.9950
vn -0.0000 -0.0964 -0.9953
vn -0.0000 -0.2832 -0.9591
vn -0.1083 -0.0000 -0.9941
vn -0.0000 -0.4612 -0.8873
vn -0.2467 -0.2184 -0.9442
vn -0.0000 -0.2832 -0.9590
vn -0.0000 -0.4611 -0.8873
vn -0.0000 0.5044 -0.8635
vn 0.0003 0.5044 -0.8635
vn -0.0003 1.0000 -0.0000
vn 0.0002 0.5044 -0.8635
vn -0.0002 1.0000 -0.0000
vn 0.0003 1.0000 -0.0000
vt 0.108844 0.146654
vt 0.394445 0.145585
vt 0.394475 0.153760
vt 0.108875 0.154830
vt 0.394506 0.161936
vt 0.108905 0.163005
vt 0.108599 0.081251
vt 0.394200 0.080182
vt 0.394230 0.088357
vt 0.108630 0.089427
vt 0.394261 0.096533
vt 0.108660 0.097602
vt 0.394292 0.104708
vt 0.108691 0.105778
vt 0.394322 0.112884
vt 0.108722 0.113953
vt 0.394353 0.121059
vt 0.108752 0.122128
vt 0.394384 0.129234
vt 0.108783 0.130304
vt 0.481403 0.108715
vt 0.491958 0.105051
vt 0.502651 0.108292
vt 0.394414 0.137410
vt 0.108813 0.138479
vt 0.522507 0.111831
vt 0.531413 0.105084
vt 0.519267 0.122523
vt 0.542584 0.104862
vt 0.522931 0.133079
vt 0.551752 0.111248
vt 0.532099 0.139464
vt 0.555416 0.121803
vt 0.543270 0.139242
vt 0.552176 0.132495
vt 0.475017 0.117883
vt 0.509397 0.117198
vt 0.475240 0.129054
vt 0.509620 0.128369
vt 0.481986 0.137960
vt 0.503234 0.137537
vt 0.492679 0.141200
vt 0.436386 0.831469
vt 0.495541 0.831469
vt 0.495541 0.890947
vt 0.436386 0.890946
vt 0.287426 0.681869
vt 0.287426 0.831469
vt 0.230420 0.831469
vt 0.230420 0.681869
vt 0.436386 0.474710
vt 0.495541 0.474710
vt 0.495541 0.624201
vt 0.436386 0.624201
vt 0.436386 0.351958
vt 0.495541 0.415123
vt 0.079519 0.681869
vt 0.019718 0.681869
vt 0.019718 0.624201
vt 0.079519 0.624201
vt 0.287426 0.890946
vt 0.079519 0.831469
vt 0.230420 0.624201
vt 0.079519 0.351958
vt 0.230420 0.295147
vt 0.230420 0.474710
vt 0.079519 0.474710
vt 0.287426 0.624201
vt 0.287426 0.474710
vt 0.019718 0.474710
vt 0.019718 0.415124
vt 0.230420 0.890947
vt 0.079519 0.890946
vt 0.019718 0.831469
vt 0.019718 0.890947
vt 0.436386 0.681869
vt 0.495541 0.681869
vt 0.287426 0.295147
vt 0.287426 0.921965
vt 0.230420 0.921965
vt 0.495541 0.921965
vt 0.436386 0.921965
vt 0.079519 0.921965
vt 0.019718 0.921965
vt 0.287426 0.948259
vt 0.230420 0.948259
vt 0.495541 0.948259
vt 0.436386 0.948259
vt 0.079519 0.948259
vt 0.019718 0.948259
vt 0.287426 0.979706
vt 0.230420 0.979706
vt 0.495541 0.979706
vt 0.436386 0.979706
vt 0.079519 0.979706
vt 0.019718 0.979706
vt 0.568723 0.836303
vt 0.568723 0.895781
vt 0.509568 0.895781
vt 0.509568 0.836303
vt 0.717683 0.686703
vt 0.774689 0.686703
vt 0.774689 0.836303
vt 0.717683 0.836303
vt 0.568723 0.479545
vt 0.568723 0.629035
vt 0.509568 0.629035
vt 0.509568 0.479545
vt 0.568723 0.356793
vt 0.509568 0.419958
vt 0.925590 0.686703
vt 0.925590 0.629035
vt 0.985391 0.629035
vt 0.985391 0.686703
vt 0.717683 0.895781
vt 0.925590 0.836303
vt 0.774689 0.629035
vt 0.925590 0.356793
vt 0.925590 0.479545
vt 0.774689 0.479545
vt 0.774689 0.299982
vt 0.717683 0.479545
vt 0.717683 0.629035
vt 0.985391 0.479545
vt 0.985391 0.419958
vt 0.925590 0.895781
vt 0.774689 0.895781
vt 0.985391 0.836303
vt 0.985391 0.895781
vt 0.568723 0.686703
vt 0.509568 0.686703
vt 0.717683 0.299982
vt 0.774689 0.924450
vt 0.717683 0.924450
vt 0.568723 0.924450
vt 0.509568 0.924450
vt 0.985391 0.924450
vt 0.925590 0.924450
vt 0.774689 0.950743
vt 0.717683 0.950743
vt 0.568723 0.950743
vt 0.509568 0.950743
vt 0.985391 0.950743
vt 0.925590 0.950743
vt 0.774689 0.979706
vt 0.717683 0.979706
vt 0.568723 0.979706
vt 0.509568 0.979706
vt 0.985391 0.979706
vt 0.925590 0.979706
s 0
usemtl Material.005
f 1/1/1 2/2/2 4/3/3 3/4/4
f 3/4/5 4/3/6 6/5/7 5/6/8
f 5/7/9 6/8/9 8/9/10 7/10/10
f 7/10/11 8/9/11 10/11/12 9/12/12
f 9/12/13 10/11/14 12/13/15 11/14/16
f 11/14/17 12/13/17 14/15/18 13/16/18
f 13/16/19 14/15/19 16/17/20 15/18/20
f 15/18/21 16/17/21 18/19/22 17/20/22
f 4/21/23 2/22/23 20/23/23
f 17/20/24 18/19/25 20/24/26 19/25/26
f 19/25/27 20/24/27 2/2/28 1/1/28
f 11/26/29 13/27/29 9/28/29
f 9/28/29 13/27/29 15/29/29
f 9/28/29 15/29/29 7/30/29
f 7/30/29 15/29/29 17/31/29
f 7/30/29 17/31/29 5/32/29
f 5/32/29 17/31/29 19/33/29
f 5/32/29 19/33/29 3/34/29
f 3/34/29 19/33/29 1/35/29
f 6/36/23 4/21/23 20/23/23
f 6/36/23 20/23/23 18/37/23
f 8/38/23 6/36/23 18/37/23
f 8/38/23 18/37/23 16/39/23
f 10/40/23 8/38/23 16/39/23
f 10/40/23 16/39/23 14/41/23
f 12/42/23 10/40/23 14/41/23
f 42/43/30 25/44/31 24/45/32 41/46/33
f 54/47/30 49/48/30 50/49/30 53/50/30
f 43/51/30 28/52/34 32/53/35 40/54/30
f 39/55/30 22/56/36 28/52/34 43/51/30
f 36/57/30 30/58/30 29/59/30 38/60/30
f 42/43/30 41/46/33 48/61/37 49/48/30
f 36/57/30 53/50/30 50/49/30 34/62/30
f 36/57/30 38/60/30 55/63/30 53/50/30
f 37/64/30 46/65/30 52/66/30 35/67/30
f 43/51/30 40/54/30 56/68/30 51/69/30
f 35/67/30 52/66/30 55/63/30 38/60/30
f 35/67/30 38/60/30 29/59/30 27/70/30
f 21/71/30 37/64/30 35/67/30 27/70/30
f 34/62/30 50/49/30 47/72/38 33/73/39
f 26/74/30 34/62/30 33/73/39 23/75/40
f 44/76/30 31/77/41 25/44/31 42/43/30
f 39/55/30 43/51/30 51/69/30 45/78/30
f 44/76/30 42/43/30 49/48/30 54/47/30
f 31/77/41 44/76/30 40/54/30 32/53/35
f 44/76/30 54/47/30 56/68/30 40/54/30
f 51/69/30 56/68/30 55/63/30 52/66/30
f 53/50/30 55/63/30 56/68/30 54/47/30
f 45/78/30 51/69/30 52/66/30 46/65/30
f 49/48/30 48/61/37 47/72/38 50/49/30
f 47/72/42 48/61/37 62/79/43 61/80/43
f 41/46/33 24/45/44 58/81/43 60/82/43
f 23/75/45 33/73/46 59/83/43 57/84/43
f 61/80/47 62/79/47 68/85/48 67/86/48
f 60/82/47 58/81/47 64/87/48 66/88/48
f 57/84/47 59/83/47 65/89/48 63/90/48
f 67/86/48 68/85/48 74/91/49 73/92/49
f 66/88/48 64/87/48 70/93/49 72/94/50
f 63/90/51 65/89/48 71/95/49 69/96/50
f 36/57/30 34/62/30 26/74/30 30/58/30
f 96/97/52 95/98/53 78/99/54 79/100/55
f 108/101/52 107/102/52 104/103/52 103/104/52
f 97/105/52 94/106/52 86/107/56 82/108/57
f 93/109/52 97/105/52 82/108/57 76/110/58
f 90/111/52 92/112/52 83/113/52 84/114/52
f 96/97/52 103/104/52 102/115/59 95/98/53
f 90/111/52 88/116/52 104/103/52 107/102/52
f 90/111/52 107/102/52 109/117/52 92/112/52
f 91/118/52 89/119/52 106/120/52 100/121/52
f 97/105/52 105/122/52 110/123/52 94/106/52
f 89/119/52 92/112/52 109/117/52 106/120/52
f 89/119/52 81/124/52 83/113/52 92/112/52
f 75/125/52 81/124/52 89/119/52 91/118/52
f 88/116/52 87/126/60 101/127/61 104/103/52
f 80/128/52 77/129/62 87/126/60 88/116/52
f 98/130/52 96/97/52 79/100/55 85/131/63
f 93/109/52 99/132/52 105/122/52 97/105/52
f 98/130/52 108/101/52 103/104/52 96/97/52
f 85/131/63 86/107/56 94/106/52 98/130/52
f 98/130/52 94/106/52 110/123/52 108/101/52
f 105/122/52 106/120/52 109/117/52 110/123/52
f 107/102/52 108/101/52 110/123/52 109/117/52
f 99/132/52 100/121/52 106/120/52 105/122/52
f 103/104/52 104/103/52 101/127/61 102/115/59
f 101/127/61 115/133/64 116/134/64 102/115/59
f 95/98/53 114/135/64 112/136/64 78/99/65
f 77/129/66 111/137/64 113/138/64 87/126/60
f 115/133/67 121/139/68 122/140/68 116/134/67
f 114/135/67 120/141/68 118/142/68 112/136/67
f 111/137/67 117/143/68 119/144/68 113/138/67
f 121/139/69 73/145/49 74/146/70 122/140/68
f 120/141/71 72/147/49 70/148/72 118/142/68
f 117/143/68 69/149/49 71/150/73 119/144/68
f 90/111/52 84/114/52 80/128/52 88/116/52
