# Blender v2.83.0 OBJ File: 'KanjiRM.blend'
# www.blender.org
mtllib Tree.mtl
o Cylinder.001_Cylinder
v 5.653791 -7.602153 -12.681076
v 0.000000 -6.642776 0.000000
v -3.409867 -4.469278 -15.112202
v 1.735279 -13.987377 17.628567
v -10.679397 -5.694922 -9.573837
v -9.730399 -13.118357 13.392746
v 0.116692 13.857333 0.164995
v -17.231499 -16.554344 7.016118
v -14.108235 -7.602153 -2.818954
v -15.744117 -14.382831 -5.115574
v -12.481629 -5.694922 7.423225
v -8.325648 -16.554344 -14.301702
v -0.000032 5.691264 0.000000
v 0.000001 -14.382831 -16.554344
v -5.444822 -7.602153 15.530231
v 10.226195 -12.987352 -14.632231
v 3.126618 -4.584339 14.389629
v 15.083057 -16.554344 -5.115575
v 12.634237 -5.347596 9.404057
v 17.314131 -14.045761 4.619781
v 0.116711 0.256625 0.164974
v 9.813026 -16.554344 12.896955
v 13.315343 -4.665103 -8.408852
v 14.300549 -7.602153 1.352486
v -11.185331 0.279113 -3.695531
v -12.578457 3.448820 4.381372
v -7.182673 2.208767 10.263444
v 0.428662 21.990892 0.098048
v -1.034485 0.279113 12.708127
v 7.744500 2.208767 10.478108
v 14.235722 0.279113 3.712348
v 12.561405 3.332407 -3.652140
v 7.468287 2.560176 -11.524860
v 0.428643 8.230285 0.098033
v -8.079255 3.250693 -10.699452
v 0.332555 0.279113 -12.333319
v -7.209750 7.684183 -6.855989
v -10.855997 10.607231 -0.826077
v 0.421982 15.505497 -0.053930
v -1.999360 18.153992 -6.063625
v 3.634912 17.798719 -5.424030
v 6.444732 17.402481 -3.608535
v 10.787623 9.582322 1.214575
v 4.668246 16.521297 4.683156
v 0.422002 30.407146 1.979914
v 2.268230 17.276011 5.929890
v -2.545033 17.775782 6.155729
v -4.316631 17.155909 2.618718
v -0.115093 -21.325443 3.159317
v -1.916857 -21.325443 2.527982
v -3.093008 -21.325443 1.089278
v -3.175853 -21.323431 -1.318488
v -1.622766 -21.325443 -3.269966
v 0.120243 -21.325443 -3.741566
v 1.825919 -21.325443 -3.012876
v 3.277944 -21.325443 -1.346812
v 3.350406 -21.325443 0.646975
v 2.174641 -21.325443 2.424186
v -0.250119 -15.196907 1.968684
v 2.418719 9.582322 10.196370
v 7.302179 7.684183 7.797339
v -4.145088 10.802124 10.239670
v 4.831563 10.687611 -9.520251
v -2.778796 9.927992 -10.760074
v 10.245305 7.684183 -6.476661
v 6.482846 17.493227 0.574545
v -5.728348 18.575706 -0.437669
v -8.565358 8.362765 4.932863
v -3.818830 16.888208 -3.957555
v -1.743480 -15.158450 1.344419
v -2.668605 -14.985094 0.080490
v -2.622166 -14.638126 -1.932380
v -1.213996 -14.312548 -3.476569
v 0.283076 -14.193447 -3.775604
v 1.690452 -14.248775 -3.075324
v 2.837901 -14.446893 -1.606782
v 2.802649 -14.732701 0.060451
v 1.722133 -15.023753 1.479408
v -1.368054 -6.987663 2.270703
v -0.058631 -6.987663 2.729522
v -2.222816 -6.987663 1.225132
v -2.283024 -6.986201 -0.524701
v -1.154325 -6.987663 -1.942928
v 0.112399 -6.987663 -2.285661
v 1.351990 -6.987663 -1.756088
v 2.407242 -6.987663 -0.545285
v 2.459904 -6.987663 0.903690
v 1.605422 -6.987663 2.195270
vt 0.589173 0.265333
vt 0.595895 0.472255
vt 0.662265 0.473073
vt 0.877960 0.783686
vt 0.877960 0.783686
vt 0.877960 0.783686
vt 0.262107 0.279054
vt 0.282058 0.067087
vt 0.177992 0.070402
vt 0.877960 0.783686
vt 0.877960 0.783686
vt 0.877960 0.783686
vt 0.877960 0.783686
vt 0.370149 0.057594
vt 0.662265 0.057594
vt 0.572681 0.058961
vt 0.877960 0.783686
vt 0.264671 0.500121
vt 0.370149 0.500514
vt 0.877960 0.783686
vt 0.877960 0.783686
vt 0.162929 0.492740
vt 0.480163 0.063737
vt 0.877960 0.783686
vt 0.109642 0.439153
vt 0.877960 0.783686
vt 0.877960 0.783686
vt 0.060087 0.364981
vt 0.441422 0.131226
vt 0.877960 0.783686
vt 0.029690 0.274228
vt 0.877960 0.783686
vt 0.877960 0.783686
vt 0.053788 0.190112
vt 0.387907 0.205380
vt 0.877960 0.783686
vt 0.103967 0.106777
vt 0.877960 0.783686
vt 0.877960 0.783686
vt 0.518888 0.457832
vt 0.877960 0.783686
vt 0.441433 0.425167
vt 0.877960 0.783686
vt 0.403715 0.356206
vt 0.877960 0.783686
vt 0.370622 0.275728
vt 0.327853 0.738292
vt 0.223910 0.567731
vt 0.171103 0.593044
vt 0.877960 0.783686
vt 0.877960 0.783686
vt 0.877960 0.783686
vt 0.141652 0.666014
vt 0.877960 0.783686
vt 0.107088 0.739642
vt 0.877960 0.783686
vt 0.145384 0.797299
vt 0.877960 0.783686
vt 0.176292 0.871023
vt 0.877960 0.783686
vt 0.877960 0.783686
vt 0.289115 0.546303
vt 0.877960 0.783686
vt 0.361833 0.529353
vt 0.877960 0.783686
vt 0.293523 0.932763
vt 0.361833 0.947231
vt 0.877960 0.783686
vt 0.217524 0.920001
vt 0.568354 0.638433
vt 0.654111 0.720203
vt 0.594898 0.615896
vt 0.877960 0.783686
vt 0.877960 0.783686
vt 0.877960 0.783686
vt 0.877960 0.783686
vt 0.877960 0.783686
vt 0.877960 0.783686
vt 0.877960 0.783686
vt 0.877960 0.783686
vt 0.532534 0.734155
vt 0.534007 0.769461
vt 0.550816 0.792222
vt 0.585496 0.823987
vt 0.877960 0.783686
vt 0.529740 0.694203
vt 0.877960 0.783686
vt 0.625437 0.609479
vt 0.877960 0.783686
vt 0.605503 0.839892
vt 0.641444 0.833803
vt 0.543846 0.674195
vt 0.927836 0.255450
vt 0.927836 0.255450
vt 0.927836 0.255450
vt 0.927836 0.255450
vt 0.927836 0.255450
vt 0.927836 0.255450
vt 0.927836 0.255450
vt 0.927836 0.255450
vt 0.478772 0.634491
vt 0.449116 0.672211
vt 0.513878 0.592421
vt 0.497034 0.836739
vt 0.538898 0.888261
vt 0.449116 0.802869
vt 0.455593 0.735699
vt 0.604776 0.532453
vt 0.547213 0.540125
vt 0.580256 0.922102
vt 0.644298 0.913852
vt 0.927836 0.255450
vt 0.927836 0.255450
vt 0.927836 0.255450
vt 0.927836 0.255450
vt 0.927836 0.255450
vt 0.927836 0.255450
vt 0.927836 0.255450
vt 0.927836 0.255450
vt 0.927836 0.255450
vt 0.927836 0.255450
vt 0.927836 0.255450
vt 0.927836 0.255450
vt 0.927836 0.255450
vt 0.927836 0.255450
vt 0.927836 0.255450
vt 0.927836 0.255450
vt 0.927836 0.255450
vt 0.927836 0.255450
vt 0.927836 0.255450
vt 0.927836 0.255450
vt 0.927836 0.255450
vt 0.927836 0.255450
vn -0.7923 0.5591 -0.2443
vn 0.0744 -0.9179 -0.3898
vn -0.2233 0.6394 0.7357
vn 0.4838 -0.8752 -0.0015
vn 0.4717 -0.8780 -0.0818
vn -0.6483 0.6348 0.4205
vn -0.8351 0.5493 0.0303
vn 0.4650 -0.8796 -0.1004
vn -0.7884 0.6150 0.0134
vn 0.4672 -0.8796 0.0896
vn 0.2818 -0.8576 0.4303
vn -0.5567 0.5865 -0.5882
vn -0.5448 0.5769 0.6086
vn 0.3311 -0.8548 0.3997
vn -0.3509 0.5958 -0.7225
vn 0.2020 -0.8997 -0.3870
vn 0.0440 -0.9050 0.4231
vn 0.0581 0.6352 -0.7702
vn -0.1042 0.5967 0.7957
vn -0.5556 -0.8310 -0.0279
vn 0.7926 0.5804 -0.1870
vn 0.2667 -0.8938 -0.3606
vn -0.4432 -0.8383 0.3176
vn 0.7479 0.5810 -0.3211
vn 0.4093 0.5982 0.6889
vn -0.2370 -0.8490 -0.4721
vn 0.5021 0.5887 0.6335
vn -0.2182 -0.9370 -0.2727
vn -0.4466 -0.8407 -0.3063
vn 0.5398 0.5876 0.6028
vn 0.3177 -0.9241 0.2125
vn -0.5480 0.5953 -0.5876
vn -0.3888 -0.8510 0.3530
vn 0.3878 0.5450 -0.7433
vn 0.0288 -0.8471 0.5307
vn 0.2402 0.5435 -0.8043
vn -0.4598 -0.8621 -0.2130
vn 0.8293 0.5527 0.0826
vn -0.4888 -0.8611 0.1400
vn 0.8336 0.5520 0.0180
vn -0.1783 0.5031 0.8456
vn -0.0508 -0.8421 -0.5369
vn 0.1106 0.4936 0.8626
vn 0.0521 -0.8475 -0.5283
vn 0.6854 0.5206 0.5091
vn -0.4532 -0.8717 -0.1862
vn 0.8409 0.5402 0.0328
vn -0.4296 -0.8645 -0.2608
vn 0.6805 0.5417 -0.4934
vn -0.2857 -0.9181 0.2749
vn 0.2065 -0.9018 -0.3796
vn -0.5611 0.5388 0.6283
vn 0.4285 -0.8135 0.3932
vn -0.8067 0.4894 -0.3312
vn 0.5817 -0.8089 -0.0853
vn -0.8557 0.4879 -0.1725
vn -0.1890 -0.8266 0.5301
vn 0.0070 0.4968 -0.8678
vn 0.2042 -0.8254 0.5263
vn -0.0605 0.4962 -0.8661
vn -0.8664 0.3280 0.3765
vn 0.5796 -0.8072 -0.1117
vn -0.1643 -0.8676 -0.4693
vn -0.5036 -0.8298 0.2403
vn 0.0140 -0.8885 0.4587
vn 0.9044 0.4264 -0.0175
vn 0.1286 0.5263 -0.8405
vn -0.4029 -0.8003 -0.4441
vn -0.5471 -0.8210 0.1630
vn 0.8279 0.3400 0.4461
vn 0.3796 -0.8009 -0.4631
vn -0.7997 0.3107 0.5137
vn 0.2987 -0.7754 0.5565
vn 0.5914 -0.7739 0.2264
vn -0.6653 0.4652 -0.5839
vn -0.7940 0.4354 -0.4243
vn 0.5134 0.3126 0.7992
vn -0.9988 0.0488 0.0082
vn -0.4873 -0.7939 -0.3638
vn 0.5121 0.5282 -0.6773
vn 0.0755 0.2970 0.9519
vn 0.9987 0.0509 -0.0009
vn 0.5239 0.4193 0.7415
vn 0.0939 0.4855 0.8692
vn 0.1071 0.4967 -0.8613
vn 0.5848 0.4523 -0.6733
vn 0.8969 0.4269 -0.1154
vn 0.7604 0.4251 0.4911
vn -0.7300 0.4658 0.5002
vn -0.6642 0.4445 -0.6010
vn -0.7413 0.4092 -0.5320
vn -0.7952 0.4568 0.3987
vn 0.2738 -0.0883 0.9577
vn 0.4171 0.1874 -0.8893
vn -0.7593 0.1448 -0.6344
vn -0.3602 -0.0832 0.9292
vn 0.8151 -0.0334 0.5783
vn -0.7929 -0.0376 0.6082
vn 0.7698 0.1409 -0.6225
vn -0.2298 0.1966 -0.9532
vn 0.2652 0.1754 0.9481
vn -0.3485 0.1788 0.9201
vn 0.9973 0.0729 -0.0044
vn -0.9970 0.0766 0.0143
vn -0.2311 -0.0072 -0.9729
vn 0.7702 0.0170 -0.6376
vn -0.7767 0.1446 0.6131
vn 0.8042 0.1312 0.5797
vn -0.7636 0.0150 -0.6455
vn 0.4171 -0.0070 -0.9089
usemtl Material.002
s off
f 7/1/1 5/2/1 9/3/1
f 2/4/2 4/5/2 6/6/2
f 13/7/3 6/8/3 4/9/3
f 21/10/4 9/11/4 5/12/4
f 2/4/5 6/6/5 8/13/5
f 13/7/6 8/14/6 6/8/6
f 7/1/7 9/15/7 11/16/7
f 2/4/8 8/13/8 10/17/8
f 13/7/9 10/18/9 8/19/9
f 21/10/10 11/20/10 9/11/10
f 2/4/11 10/17/11 12/21/11
f 13/7/12 12/22/12 10/18/12
f 7/1/13 11/16/13 15/23/13
f 2/4/14 12/21/14 14/24/14
f 13/7/15 14/25/15 12/22/15
f 21/10/16 15/26/16 11/20/16
f 2/4/17 14/24/17 16/27/17
f 13/7/18 16/28/18 14/25/18
f 7/1/19 15/23/19 17/29/19
f 2/4/20 16/27/20 18/30/20
f 13/7/21 18/31/21 16/28/21
f 21/10/22 17/32/22 15/26/22
f 2/4/23 18/30/23 20/33/23
f 13/7/24 20/34/24 18/31/24
f 7/1/25 17/29/25 19/35/25
f 2/4/26 20/33/26 22/36/26
f 13/7/27 22/37/27 20/34/27
f 21/10/28 19/38/28 17/32/28
f 2/4/29 22/36/29 4/5/29
f 13/7/30 4/9/30 22/37/30
f 21/10/31 5/12/31 3/39/31
f 7/1/32 3/40/32 5/2/32
f 21/10/33 3/39/33 1/41/33
f 7/1/34 1/42/34 3/40/34
f 21/10/35 1/41/35 23/43/35
f 7/1/36 23/44/36 1/42/36
f 21/10/37 23/43/37 24/45/37
f 7/1/38 24/46/38 23/44/38
f 21/10/39 24/45/39 19/38/39
f 7/1/40 19/35/40 24/46/40
f 28/47/41 27/48/41 29/49/41
f 34/50/42 29/51/42 27/52/42
f 28/47/43 29/49/43 30/53/43
f 34/50/44 30/54/44 29/51/44
f 28/47/45 30/53/45 31/55/45
f 34/50/46 31/56/46 30/54/46
f 28/47/47 31/55/47 32/57/47
f 34/50/48 32/58/48 31/56/48
f 28/47/49 32/57/49 33/59/49
f 34/50/50 33/60/50 32/58/50
f 34/50/51 27/52/51 26/61/51
f 28/47/52 26/62/52 27/48/52
f 34/50/53 26/61/53 25/63/53
f 28/47/54 25/64/54 26/62/54
f 34/50/55 25/63/55 35/65/55
f 28/47/56 35/66/56 25/67/56
f 34/50/57 35/65/57 36/68/57
f 28/47/58 36/69/58 35/66/58
f 34/50/59 36/68/59 33/60/59
f 28/47/60 33/59/60 36/69/60
f 47/70/61 45/71/61 48/72/61
f 39/73/62 62/74/62 68/75/62
f 39/73/63 60/76/63 62/74/63
f 39/73/64 65/77/64 43/78/64
f 39/73/65 64/79/65 63/80/65
f 45/71/66 66/81/66 42/82/66
f 45/71/67 41/83/67 40/84/67
f 39/73/68 43/78/68 61/85/68
f 39/73/69 63/80/69 65/77/69
f 45/71/70 44/86/70 66/81/70
f 39/73/71 68/75/71 38/87/71
f 45/71/72 67/88/72 48/72/72
f 39/73/73 38/87/73 37/89/73
f 39/73/74 37/89/74 64/79/74
f 45/71/75 69/90/75 67/91/75
f 45/71/76 40/84/76 69/90/76
f 45/71/77 46/92/77 44/86/77
f 72/93/78 71/94/78 81/95/78 82/96/78
f 39/73/79 61/85/79 60/76/79
f 45/71/80 42/82/80 41/83/80
f 46/92/81 45/71/81 47/70/81
f 77/97/82 76/98/82 86/99/82 87/100/82
f 46/92/83 60/101/83 61/102/83 44/86/83
f 47/70/84 62/103/84 60/101/84 46/92/84
f 41/83/85 63/104/85 64/105/85 40/84/85
f 42/82/86 65/106/86 63/104/86 41/83/86
f 66/81/87 43/107/87 65/106/87 42/82/87
f 44/86/88 61/102/88 43/107/88 66/81/88
f 67/88/89 38/108/89 68/109/89 48/72/89
f 69/90/90 37/110/90 38/111/90 67/91/90
f 40/84/91 64/105/91 37/110/91 69/90/91
f 48/72/92 68/109/92 62/103/92 47/70/92
f 59/112/93 78/113/93 88/114/93 80/115/93
f 75/116/94 74/117/94 84/118/94 85/119/94
f 73/120/95 72/93/95 82/96/95 83/121/95
f 70/122/96 59/112/96 80/115/96 79/123/96
f 78/113/97 77/97/97 87/100/97 88/114/97
f 71/94/98 70/122/98 79/123/98 81/95/98
f 76/98/99 75/116/99 85/119/99 86/99/99
f 74/117/100 73/120/100 83/121/100 84/118/100
f 49/124/101 58/125/101 78/113/101 59/112/101
f 50/126/102 49/124/102 59/112/102 70/122/102
f 57/127/103 56/128/103 76/98/103 77/97/103
f 52/129/104 51/130/104 71/94/104 72/93/104
f 54/131/105 53/132/105 73/120/105 74/117/105
f 56/128/106 55/133/106 75/116/106 76/98/106
f 51/130/107 50/126/107 70/122/107 71/94/107
f 58/125/108 57/127/108 77/97/108 78/113/108
f 53/132/109 52/129/109 72/93/109 73/120/109
f 55/133/110 54/131/110 74/117/110 75/116/110
