# Blender 4.2.0
# www.blender.org
o EnvRankBAnner2
v -0.126804 -2.618767 -0.151678
v -0.126804 2.618767 -0.151678
v -0.085909 -2.618767 -0.138391
v -0.085909 2.618767 -0.138391
v -0.060635 -2.618767 -0.103604
v -0.060635 2.618767 -0.103604
v -0.060635 -2.618767 -0.060605
v -0.060635 2.618767 -0.060605
v -0.085909 -2.618767 -0.025818
v -0.085909 2.618767 -0.025818
v -0.126804 -2.618767 -0.012530
v -0.126804 2.618767 -0.012530
v -0.167698 -2.618767 -0.025818
v -0.167698 2.618767 -0.025818
v -0.192972 -2.618767 -0.060605
v -0.192972 2.618767 -0.060605
v -0.192972 -2.618767 -0.103604
v -0.192972 2.618767 -0.103604
v -0.167698 -2.618767 -0.138391
v -0.167698 2.618767 -0.138391
v -0.883992 2.450523 -0.067347
v 0.618150 2.450523 -0.067347
v -0.883992 2.409629 -0.054060
v 0.618150 2.409629 -0.054060
v -0.883992 2.384354 -0.019273
v 0.618150 2.384354 -0.019273
v -0.883992 2.384354 0.023726
v 0.618150 2.384354 0.023726
v -0.883992 2.409629 0.058513
v 0.618150 2.409629 0.058513
v -0.883992 2.450523 0.071801
v 0.618150 2.450523 0.071801
v -0.883992 2.491418 0.058513
v 0.618150 2.491418 0.058513
v -0.883992 2.516692 0.023726
v 0.618150 2.516692 0.023726
v -0.883992 2.516692 -0.019273
v 0.618150 2.516692 -0.019273
v -0.883992 2.491418 -0.054060
v 0.618150 2.491418 -0.054060
v -0.835616 0.944672 0.004861
v 0.577666 0.944672 0.004861
v -0.835616 2.357953 0.004861
v 0.577666 2.357953 0.004861
v 0.577666 2.181293 0.004861
v -0.835616 2.181293 0.004861
v -0.835616 1.121655 0.004861
v 0.577666 1.121655 0.004861
v -0.835616 1.565670 0.004861
v -0.835616 1.736955 0.004861
v 0.577666 1.736955 0.004861
v 0.577666 1.565670 0.004861
v -0.657995 2.357953 0.004861
v -0.657995 2.181293 0.004861
v -0.657995 1.121655 0.004861
v -0.657995 1.736955 0.004861
v -0.657995 0.757060 0.004861
v -0.657995 1.565670 0.004861
v 0.401966 0.757060 0.004861
v 0.401966 1.565670 0.004861
v 0.401966 2.357953 0.004861
v 0.401966 2.181293 0.004861
v 0.401966 1.121655 0.004861
v 0.401966 1.736955 0.004861
v -0.040474 0.588320 0.004861
v -0.209792 0.588320 0.004861
v -0.209792 2.357953 0.004861
v -0.040474 2.357953 0.004861
v -0.040474 2.181293 0.004861
v -0.209792 2.181293 0.004861
v -0.040474 1.121655 0.004861
v -0.209792 1.121655 0.004861
v -0.209792 1.736955 0.004861
v -0.040474 1.736955 0.004861
v -0.209792 1.565670 0.004861
v -0.040474 1.565670 0.004861
v -0.835616 2.409816 0.081009
v 0.577666 2.409816 0.081009
v -0.657995 2.409816 0.081009
v 0.401966 2.409816 0.081009
v -0.209792 2.409816 0.081009
v -0.040474 2.409816 0.081009
v -0.835616 2.487912 0.081009
v 0.577666 2.487912 0.081009
v -0.657995 2.487912 0.081009
v 0.401966 2.487912 0.081009
v -0.209792 2.487912 0.081009
v -0.040474 2.487912 0.081009
v -0.835616 2.534073 -0.000189
v 0.577666 2.534073 -0.000189
v -0.657995 2.534073 -0.000189
v 0.401966 2.534073 -0.000189
v -0.209792 2.534073 -0.000189
v -0.040474 2.534073 -0.000189
v -0.835616 0.944672 -0.005239
v 0.577666 0.944672 -0.005239
v -0.835616 2.357953 -0.005239
v 0.577666 2.357953 -0.005239
v 0.577666 2.181293 -0.005239
v -0.835616 2.181293 -0.005239
v -0.835616 1.121655 -0.005239
v 0.577666 1.121655 -0.005239
v -0.835616 1.565670 -0.005239
v -0.835616 1.736955 -0.005239
v 0.577666 1.736955 -0.005239
v 0.577666 1.565670 -0.005239
v -0.657995 2.357953 -0.005239
v -0.657995 2.181293 -0.005239
v -0.657995 1.121655 -0.005239
v -0.657995 1.736955 -0.005239
v -0.657995 0.757060 -0.005239
v -0.657995 1.565670 -0.005239
v 0.401966 0.757060 -0.005239
v 0.401966 1.565670 -0.005239
v 0.401966 2.357953 -0.005239
v 0.401966 2.181293 -0.005239
v 0.401966 1.121655 -0.005239
v 0.401966 1.736955 -0.005239
v -0.040474 0.588320 -0.005239
v -0.209792 0.588320 -0.005239
v -0.209792 2.357953 -0.005239
v -0.040474 2.357953 -0.005239
v -0.040474 2.181293 -0.005239
v -0.209792 2.181293 -0.005239
v -0.040474 1.121655 -0.005239
v -0.209792 1.121655 -0.005239
v -0.209792 1.736955 -0.005239
v -0.040474 1.736955 -0.005239
v -0.209792 1.565670 -0.005239
v -0.040474 1.565670 -0.005239
v -0.835616 2.409816 -0.072777
v 0.577666 2.409816 -0.072777
v -0.657995 2.409816 -0.072777
v 0.401966 2.409816 -0.072777
v -0.209792 2.409816 -0.072777
v -0.040474 2.409816 -0.072777
v -0.835616 2.487912 -0.072777
v 0.577666 2.487912 -0.072777
v -0.657995 2.487912 -0.072777
v 0.401966 2.487912 -0.072777
v -0.209792 2.487912 -0.072777
v -0.040474 2.487912 -0.072777
vn 0.0001 -0.0013 -1.0000
vn 0.0001 -0.0000 -1.0000
vn 0.5877 -0.0000 -0.8091
vn 0.5877 -0.0046 -0.8091
vn 0.5879 -0.0046 -0.8090
vn 0.5878 -0.0000 -0.8090
vn 0.9510 -0.0000 -0.3091
vn 0.9509 -0.0153 -0.3091
vn 0.9510 -0.0153 -0.3089
vn 0.9511 -0.0000 -0.3090
vn 0.9511 -0.0000 0.3090
vn 0.9509 -0.0187 0.3089
vn 0.9509 -0.0186 0.3090
vn 0.9510 -0.0001 0.3091
vn 0.5878 -0.0000 0.8090
vn 0.5878 -0.0099 0.8089
vn 0.5877 -0.0099 0.8090
vn 0.5877 -0.0000 0.8091
vn 0.0001 -0.0000 1.0000
vn 0.0001 -0.0013 1.0000
vn -0.0001 -0.0013 1.0000
vn -0.0001 -0.0000 1.0000
vn -0.5877 -0.0000 0.8091
vn -0.5877 -0.0046 0.8091
vn -0.5879 -0.0046 0.8090
vn -0.5879 -0.0001 0.8089
vn -0.9510 -0.0000 0.3091
vn -0.9509 -0.0153 0.3091
vn -0.9510 -0.0153 0.3089
vn -0.9511 -0.0000 0.3090
vn -0.9511 -0.0000 -0.3090
vn -0.9509 -0.0187 -0.3089
vn -0.0000 1.0000 -0.0000
vn -0.9509 -0.0186 -0.3090
vn -0.9510 -0.0000 -0.3091
vn -0.5879 -0.0000 -0.8089
vn -0.5878 -0.0099 -0.8089
vn -0.5877 -0.0099 -0.8090
vn -0.5877 -0.0001 -0.8091
vn -0.0001 -0.0000 -1.0000
vn -0.0001 -0.0013 -1.0000
vn 0.5878 -0.0046 -0.8090
vn -0.5878 -0.0100 -0.8089
vn -0.0001 -0.0012 -1.0000
vn 0.9509 -0.0153 -0.3090
vn -0.5878 -0.0100 -0.8090
vn -0.9509 -0.0186 -0.3089
vn -0.5877 -0.0100 -0.8090
vn -0.9509 -0.0153 0.3090
vn 0.5877 -0.0100 0.8090
vn 0.9509 -0.0186 0.3089
vn 0.5878 -0.0100 0.8090
vn -0.5878 -0.0046 0.8090
vn 0.0001 -0.0012 1.0000
vn 0.5878 -0.0100 0.8089
vn -0.0000 -0.0001 -1.0000
vn -0.0000 -0.5877 -0.8091
vn 0.0001 -0.5877 -0.8091
vn -0.0000 -0.5878 -0.8090
vn -0.0000 -0.9510 -0.3091
vn 0.0001 -0.9510 -0.3091
vn -0.0000 -0.9511 -0.3090
vn -0.0000 -0.9511 0.3090
vn -0.0000 -0.9510 0.3091
vn -0.0000 -0.5878 0.8090
vn -0.0000 -0.5877 0.8091
vn -0.0001 -0.5877 0.8091
vn -0.0000 -0.0001 1.0000
vn -0.0002 -0.0001 1.0000
vn -0.0000 0.0001 1.0000
vn -0.0000 0.5877 0.8091
vn -0.0000 0.5878 0.8090
vn -0.0000 0.9510 0.3091
vn -0.0000 0.9511 0.3089
vn -0.0000 0.9511 -0.3089
vn 1.0000 -0.0000 -0.0000
vn -0.0000 0.9510 -0.3091
vn -0.0001 0.9510 -0.3091
vn -0.0000 0.5878 -0.8090
vn -0.0000 0.5877 -0.8091
vn -0.0000 0.0001 -1.0000
vn -1.0000 -0.0000 -0.0000
vn -0.0000 -0.0000 1.0000
vn -0.1022 -0.0000 0.9948
vn -0.2272 -0.2459 0.9423
vn -0.0000 -0.1123 0.9937
vn -0.1024 -0.0000 0.9947
vn -0.1003 -0.0000 0.9950
vn -0.1923 -0.2053 0.9596
vn -0.0000 -0.1096 0.9940
vn -0.0000 -0.1087 0.9941
vn -0.0000 -0.1121 0.9937
vn -0.0000 -0.3161 0.9487
vn -0.1002 -0.0000 0.9950
vn -0.0000 -0.1086 0.9941
vn -0.0000 -0.5056 0.8628
vn -0.2272 -0.2458 0.9423
vn -0.0000 -0.3160 0.9487
vn -0.0000 -0.1122 0.9937
vn -0.0000 -0.5055 0.8628
vn -0.0000 0.5470 0.8371
vn 0.0002 1.0000 -0.0000
vn -0.0000 -0.0000 -1.0000
vn -0.0000 -0.0997 -0.9950
vn -0.2465 -0.2185 -0.9442
vn -0.1106 -0.0000 -0.9939
vn -0.1085 -0.0000 -0.9941
vn -0.1107 -0.0000 -0.9938
vn -0.2068 -0.2208 -0.9531
vn -0.0000 -0.0973 -0.9953
vn -0.0000 -0.0996 -0.9950
vn -0.0000 -0.0965 -0.9953
vn -0.0000 -0.2833 -0.9590
vn -0.1084 -0.0000 -0.9941
vn -0.0000 -0.4612 -0.8873
vn -0.2466 -0.2185 -0.9442
vn -0.0000 -0.4611 -0.8873
vn -0.0000 0.5044 -0.8635
vn 0.0002 0.5044 -0.8635
vn -0.0003 1.0000 -0.0000
vn -0.0002 1.0000 -0.0000
vn 0.0003 1.0000 -0.0000
vt 0.022518 0.200319
vt 0.989417 0.196698
vt 0.989446 0.204636
vt 0.022548 0.208257
vt 0.989476 0.212574
vt 0.022578 0.216195
vt 0.989506 0.220512
vt 0.022608 0.224133
vt 0.989536 0.228451
vt 0.022637 0.232071
vt 0.989565 0.236388
vt 0.022667 0.240009
vt 0.989595 0.244327
vt 0.022697 0.247947
vt 0.989625 0.252265
vt 0.022726 0.255885
vt 0.989654 0.260203
vt 0.022756 0.263823
vt 0.601236 0.121631
vt 0.597996 0.132324
vt 0.589090 0.139070
vt 0.022459 0.184443
vt 0.989357 0.180822
vt 0.989387 0.188760
vt 0.022489 0.192381
vt 0.442047 0.139802
vt 0.462124 0.132833
vt 0.453217 0.139579
vt 0.597573 0.111076
vt 0.577919 0.139293
vt 0.588405 0.104690
vt 0.568751 0.132907
vt 0.577234 0.104913
vt 0.565087 0.122352
vt 0.568327 0.111659
vt 0.432879 0.133416
vt 0.465364 0.122140
vt 0.429215 0.122860
vt 0.461700 0.111585
vt 0.432455 0.112168
vt 0.452532 0.105199
vt 0.441361 0.105422
vt 0.108844 0.146654
vt 0.394445 0.145585
vt 0.394475 0.153760
vt 0.108875 0.154830
vt 0.394506 0.161936
vt 0.108905 0.163005
vt 0.108599 0.081251
vt 0.394200 0.080182
vt 0.394230 0.088357
vt 0.108630 0.089427
vt 0.394261 0.096533
vt 0.108660 0.097602
vt 0.394292 0.104708
vt 0.108691 0.105778
vt 0.394322 0.112884
vt 0.108722 0.113953
vt 0.394353 0.121059
vt 0.108752 0.122128
vt 0.394384 0.129234
vt 0.108783 0.130304
vt 0.481403 0.108715
vt 0.491958 0.105051
vt 0.502651 0.108292
vt 0.394414 0.137410
vt 0.108813 0.138479
vt 0.522507 0.111831
vt 0.531413 0.105084
vt 0.519267 0.122523
vt 0.542584 0.104862
vt 0.522931 0.133079
vt 0.551752 0.111248
vt 0.532099 0.139464
vt 0.555416 0.121803
vt 0.543270 0.139242
vt 0.552176 0.132495
vt 0.475017 0.117883
vt 0.509397 0.117198
vt 0.475240 0.129054
vt 0.509620 0.128369
vt 0.481986 0.137960
vt 0.503234 0.137537
vt 0.492679 0.141200
vt 0.436386 0.831469
vt 0.495541 0.831469
vt 0.495541 0.890947
vt 0.436386 0.890946
vt 0.287426 0.681869
vt 0.287426 0.831469
vt 0.230420 0.831469
vt 0.230420 0.681869
vt 0.436386 0.474710
vt 0.495541 0.474710
vt 0.495541 0.624201
vt 0.436386 0.624201
vt 0.436386 0.351958
vt 0.495541 0.415123
vt 0.079519 0.681869
vt 0.019718 0.681869
vt 0.019718 0.624201
vt 0.079519 0.624201
vt 0.287426 0.890946
vt 0.079519 0.831469
vt 0.230420 0.624201
vt 0.079519 0.351958
vt 0.230420 0.295147
vt 0.230420 0.474710
vt 0.079519 0.474710
vt 0.287426 0.624201
vt 0.287426 0.474710
vt 0.019718 0.474710
vt 0.019718 0.415124
vt 0.230420 0.890947
vt 0.079519 0.890946
vt 0.019718 0.831469
vt 0.019718 0.890947
vt 0.436386 0.681869
vt 0.495541 0.681869
vt 0.287426 0.295147
vt 0.287426 0.921965
vt 0.230420 0.921965
vt 0.495541 0.921965
vt 0.436386 0.921965
vt 0.079519 0.921965
vt 0.019718 0.921965
vt 0.287426 0.948259
vt 0.230420 0.948259
vt 0.495541 0.948259
vt 0.436386 0.948259
vt 0.079519 0.948259
vt 0.019718 0.948259
vt 0.287426 0.979706
vt 0.230420 0.979706
vt 0.495541 0.979706
vt 0.436386 0.979706
vt 0.079519 0.979706
vt 0.019718 0.979706
vt 0.568723 0.836303
vt 0.568723 0.895781
vt 0.509568 0.895781
vt 0.509568 0.836303
vt 0.717683 0.686703
vt 0.774689 0.686703
vt 0.774689 0.836303
vt 0.717683 0.836303
vt 0.568723 0.479545
vt 0.568723 0.629035
vt 0.509568 0.629035
vt 0.509568 0.479545
vt 0.568723 0.356793
vt 0.509568 0.419958
vt 0.925590 0.686703
vt 0.925590 0.629035
vt 0.985391 0.629035
vt 0.985391 0.686703
vt 0.717683 0.895781
vt 0.925590 0.836303
vt 0.774689 0.629035
vt 0.925590 0.356793
vt 0.925590 0.479545
vt 0.774689 0.479545
vt 0.774689 0.299982
vt 0.717683 0.479545
vt 0.717683 0.629035
vt 0.985391 0.479545
vt 0.985391 0.419958
vt 0.925590 0.895781
vt 0.774689 0.895781
vt 0.985391 0.836303
vt 0.985391 0.895781
vt 0.568723 0.686703
vt 0.509568 0.686703
vt 0.717683 0.299982
vt 0.774689 0.924450
vt 0.717683 0.924450
vt 0.568723 0.924450
vt 0.509568 0.924450
vt 0.985391 0.924450
vt 0.925590 0.924450
vt 0.774689 0.950743
vt 0.717683 0.950743
vt 0.568723 0.950743
vt 0.509568 0.950743
vt 0.985391 0.950743
vt 0.925590 0.950743
vt 0.774689 0.979706
vt 0.717683 0.979706
vt 0.568723 0.979706
vt 0.509568 0.979706
vt 0.985391 0.979706
vt 0.925590 0.979706
s 0
usemtl Material.005
f 1/1/1 2/2/2 4/3/3 3/4/4
f 3/4/5 4/3/6 6/5/7 5/6/8
f 5/6/9 6/5/10 8/7/11 7/8/12
f 7/8/13 8/7/14 10/9/15 9/10/16
f 9/10/17 10/9/18 12/11/19 11/12/20
f 11/12/21 12/11/22 14/13/23 13/14/24
f 13/14/25 14/13/26 16/15/27 15/16/28
f 15/16/29 16/15/30 18/17/31 17/18/32
f 4/19/33 2/20/33 20/21/33
f 17/22/34 18/23/35 20/24/36 19/25/37
f 19/25/38 20/24/39 2/2/40 1/1/41
f 3/26/42 19/27/43 1/28/44
f 6/29/33 4/19/33 20/21/33
f 6/29/33 20/21/33 18/30/33
f 8/31/33 6/29/33 18/30/33
f 8/31/33 18/30/33 16/32/33
f 10/33/33 8/31/33 16/32/33
f 10/33/33 16/32/33 14/34/33
f 12/35/33 10/33/33 14/34/33
f 5/36/45 19/27/46 3/26/42
f 5/36/9 17/37/47 19/27/48
f 7/38/13 17/37/34 5/36/45
f 7/38/13 15/39/49 17/37/34
f 9/40/50 15/39/29 7/38/51
f 9/40/52 13/41/53 15/39/49
f 11/42/54 13/41/53 9/40/55
f 21/43/56 22/44/56 24/45/57 23/46/58
f 23/46/59 24/45/59 26/47/60 25/48/61
f 25/49/62 26/50/62 28/51/63 27/52/63
f 27/52/64 28/51/64 30/53/65 29/54/65
f 29/54/66 30/53/67 32/55/68 31/56/69
f 31/56/70 32/55/70 34/57/71 33/58/71
f 33/58/72 34/57/72 36/59/73 35/60/73
f 35/60/74 36/59/74 38/61/75 37/62/75
f 24/63/76 22/64/76 40/65/76
f 37/62/77 38/61/78 40/66/79 39/67/79
f 39/67/80 40/66/80 22/44/81 21/43/81
f 31/68/82 33/69/82 29/70/82
f 29/70/82 33/69/82 35/71/82
f 29/70/82 35/71/82 27/72/82
f 27/72/82 35/71/82 37/73/82
f 27/72/82 37/73/82 25/74/82
f 25/74/82 37/73/82 39/75/82
f 25/74/82 39/75/82 23/76/82
f 23/76/82 39/75/82 21/77/82
f 26/78/76 24/63/76 40/65/76
f 26/78/76 40/65/76 38/79/76
f 28/80/76 26/78/76 38/79/76
f 28/80/76 38/79/76 36/81/76
f 30/82/76 28/80/76 36/81/76
f 30/82/76 36/81/76 34/83/76
f 32/84/76 30/82/76 34/83/76
f 62/85/83 45/86/84 44/87/85 61/88/86
f 74/89/83 69/90/83 70/91/83 73/92/83
f 63/93/83 48/94/87 52/95/88 60/96/83
f 59/97/83 42/98/89 48/94/87 63/93/83
f 56/99/83 50/100/83 49/101/83 58/102/83
f 62/85/83 61/88/86 68/103/90 69/90/83
f 56/99/83 73/92/83 70/91/83 54/104/83
f 56/99/83 58/102/83 75/105/83 73/92/83
f 57/106/83 66/107/83 72/108/83 55/109/83
f 63/93/83 60/96/83 76/110/83 71/111/83
f 55/109/83 72/108/83 75/105/83 58/102/83
f 55/109/83 58/102/83 49/101/83 47/112/83
f 41/113/83 57/106/83 55/109/83 47/112/83
f 54/104/83 70/91/83 67/114/91 53/115/92
f 46/116/83 54/104/83 53/115/92 43/117/93
f 64/118/83 51/119/94 45/86/84 62/85/83
f 59/97/83 63/93/83 71/111/83 65/120/83
f 64/118/83 62/85/83 69/90/83 74/89/83
f 51/119/94 64/118/83 60/96/83 52/95/88
f 64/118/83 74/89/83 76/110/83 60/96/83
f 71/111/83 76/110/83 75/105/83 72/108/83
f 73/92/83 75/105/83 76/110/83 74/89/83
f 65/120/83 71/111/83 72/108/83 66/107/83
f 69/90/83 68/103/90 67/114/91 70/91/83
f 67/114/95 68/103/90 82/121/96 81/122/96
f 61/88/86 44/87/97 78/123/96 80/124/96
f 43/117/98 53/115/99 79/125/96 77/126/96
f 81/122/100 82/121/100 88/127/101 87/128/101
f 80/124/100 78/123/100 84/129/101 86/130/101
f 77/126/100 79/125/100 85/131/101 83/132/101
f 87/128/101 88/127/101 94/133/33 93/134/33
f 86/130/101 84/129/101 90/135/33 92/136/102
f 83/132/101 85/131/101 91/137/33 89/138/102
f 56/99/83 54/104/83 46/116/83 50/100/83
f 116/139/103 115/140/104 98/141/105 99/142/106
f 128/143/103 127/144/103 124/145/103 123/146/103
f 117/147/103 114/148/103 106/149/107 102/150/108
f 113/151/103 117/147/103 102/150/108 96/152/109
f 110/153/103 112/154/103 103/155/103 104/156/103
f 116/139/103 123/146/103 122/157/110 115/140/104
f 110/153/103 108/158/103 124/145/103 127/144/103
f 110/153/103 127/144/103 129/159/103 112/154/103
f 111/160/103 109/161/103 126/162/103 120/163/103
f 117/147/103 125/164/103 130/165/103 114/148/103
f 109/161/103 112/154/103 129/159/103 126/162/103
f 109/161/103 101/166/103 103/155/103 112/154/103
f 95/167/103 101/166/103 109/161/103 111/160/103
f 108/158/103 107/168/111 121/169/112 124/145/103
f 100/170/103 97/171/113 107/168/111 108/158/103
f 118/172/103 116/139/103 99/142/106 105/173/114
f 113/151/103 119/174/103 125/164/103 117/147/103
f 118/172/103 128/143/103 123/146/103 116/139/103
f 105/173/114 106/149/107 114/148/103 118/172/103
f 118/172/103 114/148/103 130/165/103 128/143/103
f 125/164/103 126/162/103 129/159/103 130/165/103
f 127/144/103 128/143/103 130/165/103 129/159/103
f 119/174/103 120/163/103 126/162/103 125/164/103
f 123/146/103 124/145/103 121/169/112 122/157/110
f 121/169/112 135/175/115 136/176/115 122/157/110
f 115/140/104 134/177/115 132/178/115 98/141/116
f 97/171/113 131/179/115 133/180/115 107/168/111
f 135/175/117 141/181/118 142/182/118 136/176/117
f 134/177/117 140/183/118 138/184/118 132/178/117
f 131/179/117 137/185/118 139/186/118 133/180/117
f 141/181/119 93/187/33 94/188/120 142/182/118
f 140/183/119 92/189/33 90/190/121 138/184/118
f 137/185/118 89/191/33 91/192/122 139/186/118
f 110/153/103 104/156/103 100/170/103 108/158/103
