# Blender 4.2.0
# www.blender.org
mtllib RankJapBannerENV.mtl
o EnvRankBAnner
v 0.698244 -2.618767 -0.073886
v 0.698244 2.618767 -0.073886
v 0.739138 -2.618767 -0.060598
v 0.739138 2.618767 -0.060598
v 0.764413 -2.618767 -0.025811
v 0.764413 2.618767 -0.025811
v 0.764413 -2.618767 0.017188
v 0.764413 2.618767 0.017188
v 0.739138 -2.618767 0.051975
v 0.739138 2.618767 0.051975
v 0.698244 -2.618767 0.065262
v 0.698244 2.618767 0.065262
v 0.657349 -2.618767 0.051975
v 0.657349 2.618767 0.051975
v 0.632075 -2.618767 0.017188
v 0.632075 2.618767 0.017188
v 0.632075 -2.618767 -0.025811
v 0.632075 2.618767 -0.025811
v 0.657349 -2.618767 -0.060598
v 0.657349 2.618767 -0.060598
v -0.883992 2.450523 -0.067347
v 0.883992 2.450523 -0.067347
v -0.883992 2.409629 -0.054060
v 0.883992 2.409629 -0.054060
v -0.883992 2.384354 -0.019273
v 0.883992 2.384354 -0.019273
v -0.883992 2.384354 0.023726
v 0.883992 2.384354 0.023726
v -0.883992 2.409629 0.058513
v 0.883992 2.409629 0.058513
v -0.883992 2.450523 0.071801
v 0.883992 2.450523 0.071801
v -0.883992 2.491418 0.058513
v 0.883992 2.491418 0.058513
v -0.883992 2.516692 0.023726
v 0.883992 2.516692 0.023726
v -0.883992 2.516692 -0.019273
v 0.883992 2.516692 -0.019273
v -0.883992 2.491418 -0.054060
v 0.883992 2.491418 -0.054060
v -0.835616 0.944672 0.004861
v 0.577666 0.944672 0.004861
v -0.835616 2.357953 0.004861
v 0.577666 2.357953 0.004861
v 0.577666 2.181293 0.004861
v -0.835616 2.181293 0.004861
v -0.835616 1.121655 0.004861
v 0.577666 1.121655 0.004861
v -0.835616 1.565670 0.004861
v -0.835616 1.736955 0.004861
v 0.577666 1.736955 0.004861
v 0.577666 1.565670 0.004861
v 0.640614 0.944672 0.074844
v 0.640614 2.357953 0.074844
v 0.640614 2.181293 0.074844
v 0.640614 1.121655 0.074844
v 0.640614 1.736955 0.074844
v 0.640614 1.565670 0.074844
v 0.758707 0.944672 0.074844
v 0.758707 2.357953 0.074844
v 0.758707 2.181293 0.074844
v 0.758707 1.121655 0.074844
v 0.758707 1.736955 0.074844
v 0.758707 1.565670 0.074844
v 0.785649 0.944672 -0.000189
v 0.785649 2.357953 -0.000189
v 0.785649 2.181293 -0.000189
v 0.785649 1.121655 -0.000189
v 0.785649 1.736955 -0.000189
v 0.785649 1.565670 -0.000189
v -0.657995 2.357953 0.004861
v -0.657995 2.181293 0.004861
v -0.657995 1.121655 0.004861
v -0.657995 1.736955 0.004861
v -0.657995 0.944672 0.004861
v -0.657995 1.565670 0.004861
v 0.401966 0.944672 0.004861
v 0.401966 1.565670 0.004861
v 0.401966 2.357953 0.004861
v 0.401966 2.181293 0.004861
v 0.401966 1.121655 0.004861
v 0.401966 1.736955 0.004861
v -0.040474 0.944672 0.004861
v -0.209792 0.944672 0.004861
v -0.209792 2.357953 0.004861
v -0.040474 2.357953 0.004861
v -0.040474 2.181293 0.004861
v -0.209792 2.181293 0.004861
v -0.040474 1.121655 0.004861
v -0.209792 1.121655 0.004861
v -0.209792 1.736955 0.004861
v -0.040474 1.736955 0.004861
v -0.209792 1.565670 0.004861
v -0.040474 1.565670 0.004861
v -0.835616 2.409816 0.081009
v 0.577666 2.409816 0.081009
v -0.657995 2.409816 0.081009
v 0.401966 2.409816 0.081009
v -0.209792 2.409816 0.081009
v -0.040474 2.409816 0.081009
v -0.835616 2.487912 0.081009
v 0.577666 2.487912 0.081009
v -0.657995 2.487912 0.081009
v 0.401966 2.487912 0.081009
v -0.209792 2.487912 0.081009
v -0.040474 2.487912 0.081009
v -0.835616 2.534073 -0.000189
v 0.577666 2.534073 -0.000189
v -0.657995 2.534073 -0.000189
v 0.401966 2.534073 -0.000189
v -0.209792 2.534073 -0.000189
v -0.040474 2.534073 -0.000189
v -0.835616 0.944672 -0.005239
v 0.577666 0.944672 -0.005239
v -0.835616 2.357953 -0.005239
v 0.577666 2.357953 -0.005239
v 0.577666 2.181293 -0.005239
v -0.835616 2.181293 -0.005239
v -0.835616 1.121655 -0.005239
v 0.577666 1.121655 -0.005239
v -0.835616 1.565670 -0.005239
v -0.835616 1.736955 -0.005239
v 0.577666 1.736955 -0.005239
v 0.577666 1.565670 -0.005239
v 0.640614 0.944672 -0.081009
v 0.640614 2.357953 -0.081009
v 0.640614 2.181293 -0.081009
v 0.640614 1.121655 -0.081009
v 0.640614 1.736955 -0.081009
v 0.640614 1.565670 -0.081009
v 0.758707 0.944672 -0.081009
v 0.758707 2.357953 -0.081009
v 0.758707 2.181293 -0.081009
v 0.758707 1.121655 -0.081009
v 0.758707 1.736955 -0.081009
v 0.758707 1.565670 -0.081009
v -0.657995 2.357953 -0.005239
v -0.657995 2.181293 -0.005239
v -0.657995 1.121655 -0.005239
v -0.657995 1.736955 -0.005239
v -0.657995 0.944672 -0.005239
v -0.657995 1.565670 -0.005239
v 0.401966 0.944672 -0.005239
v 0.401966 1.565670 -0.005239
v 0.401966 2.357953 -0.005239
v 0.401966 2.181293 -0.005239
v 0.401966 1.121655 -0.005239
v 0.401966 1.736955 -0.005239
v -0.040474 0.944672 -0.005239
v -0.209792 0.944672 -0.005239
v -0.209792 2.357953 -0.005239
v -0.040474 2.357953 -0.005239
v -0.040474 2.181293 -0.005239
v -0.209792 2.181293 -0.005239
v -0.040474 1.121655 -0.005239
v -0.209792 1.121655 -0.005239
v -0.209792 1.736955 -0.005239
v -0.040474 1.736955 -0.005239
v -0.209792 1.565670 -0.005239
v -0.040474 1.565670 -0.005239
v -0.835616 2.409816 -0.072777
v 0.577666 2.409816 -0.072777
v -0.657995 2.409816 -0.072777
v 0.401966 2.409816 -0.072777
v -0.209792 2.409816 -0.072777
v -0.040474 2.409816 -0.072777
v -0.835616 2.487912 -0.072777
v 0.577666 2.487912 -0.072777
v -0.657995 2.487912 -0.072777
v 0.401966 2.487912 -0.072777
v -0.209792 2.487912 -0.072777
v -0.040474 2.487912 -0.072777
vn -0.0000 -0.0013 -1.0000
vn -0.0000 -0.0000 -1.0000
vn 0.5877 -0.0000 -0.8091
vn 0.5877 -0.0046 -0.8090
vn 0.5878 -0.0046 -0.8090
vn 0.5878 -0.0000 -0.8090
vn 0.9511 -0.0000 -0.3090
vn 0.9509 -0.0153 -0.3090
vn 0.9510 -0.0153 -0.3089
vn 0.9511 -0.0000 0.3090
vn 0.9509 -0.0187 0.3089
vn 0.9509 -0.0186 0.3090
vn 0.5878 -0.0000 0.8090
vn 0.5878 -0.0099 0.8090
vn 0.5877 -0.0099 0.8090
vn 0.5877 -0.0001 0.8091
vn -0.0000 -0.0000 1.0000
vn -0.0000 -0.0013 1.0000
vn -0.5877 -0.0000 0.8091
vn -0.5877 -0.0046 0.8090
vn -0.5878 -0.0046 0.8090
vn -0.5878 -0.0000 0.8090
vn -0.9511 -0.0000 0.3090
vn -0.9509 -0.0153 0.3090
vn -0.9510 -0.0153 0.3089
vn -0.9511 -0.0000 -0.3090
vn -0.9509 -0.0187 -0.3089
vn -0.0000 1.0000 -0.0000
vn -0.9509 -0.0186 -0.3090
vn -0.5878 -0.0000 -0.8090
vn -0.5878 -0.0099 -0.8090
vn -0.5877 -0.0099 -0.8090
vn -0.5877 -0.0001 -0.8091
vn -0.5878 -0.0100 -0.8089
vn -0.0001 -0.0012 -1.0000
vn -0.5878 -0.0100 -0.8090
vn -0.9509 -0.0186 -0.3089
vn -0.5877 -0.0100 -0.8090
vn 0.5877 -0.0100 0.8090
vn 0.9509 -0.0186 0.3089
vn 0.5878 -0.0100 0.8090
vn 0.0001 -0.0012 1.0000
vn 0.5878 -0.0100 0.8089
vn -0.0000 -0.5877 -0.8091
vn 0.0001 -0.5877 -0.8091
vn -0.0000 -0.5878 -0.8090
vn -0.0000 -0.9511 -0.3090
vn -0.0000 -0.9511 0.3090
vn -0.0000 -0.5878 0.8090
vn -0.0000 -0.5877 0.8091
vn -0.0001 -0.5877 0.8091
vn -0.0001 -0.0000 1.0000
vn -0.0000 0.5878 0.8090
vn -0.0000 0.9511 0.3090
vn -0.0000 0.9510 0.3091
vn -0.0000 0.9511 -0.3090
vn 1.0000 -0.0000 -0.0000
vn -0.0000 0.9510 -0.3091
vn -0.0000 0.5878 -0.8090
vn -1.0000 -0.0000 -0.0000
vn -0.1023 -0.0000 0.9948
vn -0.2272 -0.2459 0.9423
vn -0.0000 -0.1123 0.9937
vn -0.1025 -0.0000 0.9947
vn -0.1003 -0.0000 0.9950
vn -0.2813 -0.0000 0.9596
vn -0.1002 -0.0000 0.9950
vn -0.3606 -0.0000 0.9327
vn -0.1024 -0.0000 0.9947
vn -0.2814 -0.0000 0.9596
vn -0.1022 -0.0000 0.9948
vn -0.3605 -0.0000 0.9327
vn 0.4595 -0.0000 0.8882
vn 0.4594 -0.0000 0.8882
vn 1.0000 -0.0000 0.0001
vn -0.0000 -0.1097 0.9940
vn -0.0000 -0.1087 0.9941
vn -0.0000 -0.1122 0.9937
vn -0.0000 -0.3161 0.9487
vn -0.0000 -0.1096 0.9940
vn -0.0000 -0.5056 0.8628
vn -0.2272 -0.2458 0.9423
vn -0.0000 -0.5055 0.8628
vn -0.0000 0.5470 0.8371
vn -0.0000 -0.0998 -0.9950
vn -0.2465 -0.2185 -0.9442
vn -0.1106 -0.0000 -0.9939
vn -0.1085 -0.0000 -0.9941
vn -0.1108 -0.0000 -0.9938
vn -0.3026 -0.0000 -0.9531
vn -0.1084 -0.0000 -0.9941
vn -0.3861 -0.0000 -0.9225
vn 0.4868 -0.0000 -0.8735
vn 0.4867 -0.0000 -0.8736
vn 1.0000 -0.0000 -0.0001
vn -0.0000 -0.0974 -0.9953
vn -0.0000 -0.0996 -0.9950
vn -0.0000 -0.0965 -0.9953
vn -0.0000 -0.2834 -0.9590
vn -0.0000 -0.4612 -0.8873
vn -0.0000 -0.0973 -0.9953
vn -0.0000 -0.4611 -0.8873
vn -0.0000 0.5044 -0.8635
vn -0.0002 1.0000 -0.0000
vn 0.0002 0.5044 -0.8635
vn 0.0003 1.0000 -0.0000
vt 0.991946 0.145256
vt 0.014566 0.145256
vt 0.014566 0.137232
vt 0.991946 0.137232
vt 0.014566 0.129208
vt 0.991946 0.129208
vt 0.014566 0.121184
vt 0.991946 0.121184
vt 0.014566 0.113160
vt 0.991946 0.113160
vt 0.014566 0.105135
vt 0.991946 0.105135
vt 0.014566 0.097111
vt 0.991946 0.097111
vt 0.014566 0.089087
vt 0.991946 0.089087
vt 0.014565 0.081063
vt 0.991946 0.081063
vt 0.028288 0.229611
vt 0.032381 0.216283
vt 0.043526 0.207907
vt 0.991946 0.161304
vt 0.014565 0.161304
vt 0.014566 0.153280
vt 0.991946 0.153280
vt 0.227009 0.207681
vt 0.201924 0.216283
vt 0.213069 0.207907
vt 0.032810 0.242798
vt 0.057466 0.207681
vt 0.044220 0.250809
vt 0.068876 0.215692
vt 0.058160 0.250584
vt 0.073398 0.228880
vt 0.069305 0.242208
vt 0.238419 0.215693
vt 0.197831 0.229611
vt 0.242941 0.228880
vt 0.202353 0.242798
vt 0.238848 0.242207
vt 0.213764 0.250809
vt 0.227703 0.250584
vt 0.648447 0.253775
vt 0.978371 0.253775
vt 0.978371 0.261799
vt 0.648447 0.261799
vt 0.978371 0.269824
vt 0.648447 0.269824
vt 0.648447 0.189583
vt 0.978371 0.189583
vt 0.978371 0.197607
vt 0.648447 0.197607
vt 0.978371 0.205631
vt 0.648447 0.205631
vt 0.978371 0.213655
vt 0.648447 0.213655
vt 0.978371 0.221679
vt 0.648447 0.221679
vt 0.978371 0.229703
vt 0.648447 0.229703
vt 0.978371 0.237727
vt 0.648447 0.237727
vt 0.177755 0.246287
vt 0.164567 0.250809
vt 0.151240 0.246716
vt 0.978371 0.245751
vt 0.648447 0.245751
vt 0.126480 0.242208
vt 0.115335 0.250584
vt 0.130573 0.228880
vt 0.101396 0.250809
vt 0.126051 0.215693
vt 0.089985 0.242798
vt 0.114641 0.207682
vt 0.085463 0.229611
vt 0.100701 0.207907
vt 0.089556 0.216283
vt 0.185766 0.234877
vt 0.142864 0.235571
vt 0.185540 0.220937
vt 0.142638 0.221632
vt 0.177164 0.209792
vt 0.150649 0.210222
vt 0.163837 0.205699
vt 0.388813 0.836312
vt 0.441866 0.836312
vt 0.441866 0.889654
vt 0.388813 0.889654
vt 0.255218 0.702143
vt 0.255218 0.836312
vt 0.204092 0.836312
vt 0.204092 0.702143
vt 0.388813 0.516353
vt 0.441866 0.516353
vt 0.441866 0.650423
vt 0.388813 0.650423
vt 0.388813 0.462912
vt 0.441866 0.462912
vt 0.068757 0.702143
vt 0.015124 0.702143
vt 0.015124 0.650423
vt 0.068757 0.650423
vt 0.441866 0.702143
vt 0.468412 0.650424
vt 0.468412 0.702143
vt 0.468413 0.462912
vt 0.468413 0.516353
vt 0.468412 0.836312
vt 0.468412 0.889654
vt 0.504071 0.650423
vt 0.504071 0.702143
vt 0.504071 0.462912
vt 0.504071 0.516353
vt 0.504071 0.836312
vt 0.504071 0.889654
vt 0.458629 0.613598
vt 0.458628 0.561922
vt 0.480254 0.561922
vt 0.480254 0.613598
vt 0.458628 0.427964
vt 0.458627 0.374569
vt 0.480252 0.374569
vt 0.480253 0.427964
vt 0.458630 0.800951
vt 0.458630 0.747653
vt 0.480255 0.747653
vt 0.480256 0.800951
vt 0.255218 0.889654
vt 0.068757 0.836312
vt 0.204092 0.650423
vt 0.068757 0.462912
vt 0.204092 0.462912
vt 0.204092 0.516352
vt 0.068757 0.516352
vt 0.255218 0.650423
vt 0.255218 0.516352
vt 0.015124 0.516352
vt 0.015124 0.462912
vt 0.204092 0.889654
vt 0.068757 0.889654
vt 0.015124 0.836312
vt 0.015124 0.889654
vt 0.388813 0.702143
vt 0.255218 0.462912
vt 0.255218 0.915367
vt 0.204092 0.915367
vt 0.441866 0.915367
vt 0.388813 0.915367
vt 0.068757 0.915367
vt 0.015124 0.915367
vt 0.255218 0.938948
vt 0.204092 0.938948
vt 0.441866 0.938948
vt 0.388813 0.938948
vt 0.068757 0.938948
vt 0.015124 0.938948
vt 0.255218 0.964922
vt 0.204092 0.964922
vt 0.441866 0.964922
vt 0.388813 0.964922
vt 0.068757 0.964922
vt 0.015124 0.964922
vt 0.622578 0.747652
vt 0.622578 0.800950
vt 0.569570 0.800951
vt 0.569570 0.747653
vt 0.756060 0.613596
vt 0.807142 0.613595
vt 0.807143 0.747651
vt 0.756061 0.747651
vt 0.622576 0.427963
vt 0.622577 0.561921
vt 0.569569 0.561921
vt 0.569568 0.427963
vt 0.622575 0.374568
vt 0.569567 0.374568
vt 0.942364 0.613595
vt 0.942364 0.561919
vt 0.995951 0.561918
vt 0.995951 0.613594
vt 0.569569 0.613597
vt 0.540624 0.613597
vt 0.540623 0.561922
vt 0.540622 0.427963
vt 0.540622 0.374568
vt 0.540625 0.800951
vt 0.540624 0.747653
vt 0.504995 0.613598
vt 0.504995 0.561922
vt 0.504994 0.427964
vt 0.504994 0.374569
vt 0.504997 0.800951
vt 0.504996 0.747653
vt 0.756061 0.800949
vt 0.942365 0.747650
vt 0.807142 0.561920
vt 0.942362 0.374566
vt 0.942363 0.427961
vt 0.807141 0.427962
vt 0.807141 0.374566
vt 0.756058 0.427962
vt 0.756059 0.561920
vt 0.995950 0.427960
vt 0.995950 0.374565
vt 0.942365 0.800948
vt 0.807144 0.800949
vt 0.995952 0.747650
vt 0.995953 0.800947
vt 0.622577 0.613597
vt 0.756058 0.374567
vt 0.807144 0.826639
vt 0.756061 0.826640
vt 0.622579 0.826641
vt 0.569570 0.826641
vt 0.995953 0.826638
vt 0.942365 0.826638
vt 0.807144 0.850200
vt 0.756061 0.850201
vt 0.622579 0.850202
vt 0.569571 0.850202
vt 0.995953 0.850199
vt 0.942366 0.850200
vt 0.807144 0.876153
vt 0.756062 0.876154
vt 0.622579 0.876155
vt 0.569571 0.876155
vt 0.995953 0.876152
vt 0.942366 0.876152
s 0
usemtl Material.005
f 1/1/1 2/2/2 4/3/3 3/4/4
f 3/4/5 4/3/6 6/5/7 5/6/8
f 5/6/9 6/5/7 8/7/10 7/8/11
f 7/8/12 8/7/10 10/9/13 9/10/14
f 9/10/15 10/9/16 12/11/17 11/12/18
f 11/12/18 12/11/17 14/13/19 13/14/20
f 13/14/21 14/13/22 16/15/23 15/16/24
f 15/16/25 16/15/23 18/17/26 17/18/27
f 4/19/28 2/20/28 20/21/28
f 17/22/29 18/23/26 20/24/30 19/25/31
f 19/25/32 20/24/33 2/2/2 1/1/1
f 3/26/5 19/27/34 1/28/35
f 6/29/28 4/19/28 20/21/28
f 6/29/28 20/21/28 18/30/28
f 8/31/28 6/29/28 18/30/28
f 8/31/28 18/30/28 16/32/28
f 10/33/28 8/31/28 16/32/28
f 10/33/28 16/32/28 14/34/28
f 12/35/28 10/33/28 14/34/28
f 5/36/8 19/27/36 3/26/5
f 5/36/9 17/37/37 19/27/38
f 7/38/12 17/37/29 5/36/8
f 7/38/12 15/39/24 17/37/29
f 9/40/39 15/39/25 7/38/40
f 9/40/41 13/41/21 15/39/24
f 11/42/42 13/41/21 9/40/43
f 21/43/2 22/44/2 24/45/44 23/46/45
f 23/46/46 24/45/46 26/47/47 25/48/47
f 25/49/47 26/50/47 28/51/48 27/52/48
f 27/52/48 28/51/48 30/53/49 29/54/49
f 29/54/50 30/53/51 32/55/17 31/56/52
f 31/56/17 32/55/17 34/57/53 33/58/53
f 33/58/53 34/57/53 36/59/54 35/60/55
f 35/60/54 36/59/54 38/61/56 37/62/56
f 24/63/57 22/64/57 40/65/57
f 37/62/58 38/61/56 40/66/59 39/67/59
f 39/67/59 40/66/59 22/44/2 21/43/2
f 31/68/60 33/69/60 29/70/60
f 29/70/60 33/69/60 35/71/60
f 29/70/60 35/71/60 27/72/60
f 27/72/60 35/71/60 37/73/60
f 27/72/60 37/73/60 25/74/60
f 25/74/60 37/73/60 39/75/60
f 25/74/60 39/75/60 23/76/60
f 23/76/60 39/75/60 21/77/60
f 26/78/57 24/63/57 40/65/57
f 26/78/57 40/65/57 38/79/57
f 28/80/57 26/78/57 38/79/57
f 28/80/57 38/79/57 36/81/57
f 30/82/57 28/80/57 36/81/57
f 30/82/57 36/81/57 34/83/57
f 32/84/57 30/82/57 34/83/57
f 80/85/17 45/86/61 44/87/62 79/88/63
f 92/89/17 87/90/17 88/91/17 91/92/17
f 81/93/17 48/94/64 52/95/65 78/96/17
f 77/97/17 42/98/66 48/94/64 81/93/17
f 74/99/17 50/100/17 49/101/17 76/102/17
f 51/103/67 52/95/65 58/104/68 57/105/68
f 48/94/69 42/98/70 53/106/68 56/107/68
f 44/87/62 45/86/71 55/108/68 54/109/68
f 57/105/72 58/104/72 64/110/73 63/111/73
f 56/107/72 53/106/72 59/112/73 62/113/73
f 54/109/72 55/108/72 61/114/73 60/115/73
f 63/116/74 64/117/74 70/118/75 69/119/75
f 62/120/74 59/121/74 65/122/75 68/123/75
f 60/124/74 61/125/74 67/126/75 66/127/75
f 80/85/17 79/88/63 86/128/76 87/90/17
f 74/99/17 91/92/17 88/91/17 72/129/17
f 74/99/17 76/102/17 93/130/17 91/92/17
f 75/131/17 84/132/17 90/133/17 73/134/17
f 81/93/17 78/96/17 94/135/17 89/136/17
f 73/134/17 90/133/17 93/130/17 76/102/17
f 73/134/17 76/102/17 49/101/17 47/137/17
f 41/138/17 75/131/17 73/134/17 47/137/17
f 72/129/17 88/91/17 85/139/77 71/140/78
f 46/141/17 72/129/17 71/140/78 43/142/79
f 82/143/17 51/103/65 45/86/61 80/85/17
f 77/97/17 81/93/17 89/136/17 83/144/17
f 82/143/17 80/85/17 87/90/17 92/89/17
f 51/103/65 82/143/17 78/96/17 52/95/65
f 82/143/17 92/89/17 94/135/17 78/96/17
f 89/136/17 94/135/17 93/130/17 90/133/17
f 91/92/17 93/130/17 94/135/17 92/89/17
f 83/144/17 89/136/17 90/133/17 84/132/17
f 87/90/17 86/128/76 85/139/77 88/91/17
f 85/139/77 86/128/80 100/145/81 99/146/81
f 79/88/63 44/87/82 96/147/81 98/148/81
f 43/142/79 71/140/78 97/149/81 95/150/81
f 99/146/83 100/145/83 106/151/84 105/152/84
f 98/148/83 96/147/83 102/153/84 104/154/84
f 95/150/83 97/149/83 103/155/84 101/156/84
f 105/152/84 106/151/84 112/157/28 111/158/28
f 104/154/84 102/153/84 108/159/28 110/160/28
f 101/156/84 103/155/84 109/161/28 107/162/28
f 74/99/17 72/129/17 46/141/17 50/100/17
f 146/163/2 145/164/85 116/165/86 117/166/87
f 158/167/2 157/168/2 154/169/2 153/170/2
f 147/171/2 144/172/2 124/173/88 120/174/89
f 143/175/2 147/171/2 120/174/89 114/176/90
f 140/177/2 142/178/2 121/179/2 122/180/2
f 123/181/91 129/182/92 130/183/92 124/173/88
f 120/174/89 128/184/92 125/185/92 114/176/90
f 116/165/86 126/186/92 127/187/92 117/166/87
f 129/182/92 135/188/93 136/189/93 130/183/92
f 128/184/92 134/190/93 131/191/93 125/185/92
f 126/186/92 132/192/93 133/193/93 127/187/92
f 135/188/94 69/119/95 70/118/95 136/189/94
f 134/190/94 68/123/95 65/122/95 131/191/94
f 132/192/94 66/127/95 67/126/95 133/193/94
f 146/163/2 153/170/2 152/194/96 145/164/85
f 140/177/2 138/195/2 154/169/2 157/168/2
f 140/177/2 157/168/2 159/196/2 142/178/2
f 141/197/2 139/198/2 156/199/2 150/200/2
f 147/171/2 155/201/2 160/202/2 144/172/2
f 139/198/2 142/178/2 159/196/2 156/199/2
f 139/198/2 119/203/2 121/179/2 142/178/2
f 113/204/2 119/203/2 139/198/2 141/197/2
f 138/195/2 137/205/97 151/206/98 154/169/2
f 118/207/2 115/208/99 137/205/97 138/195/2
f 148/209/2 146/163/2 117/166/87 123/181/88
f 143/175/2 149/210/2 155/201/2 147/171/2
f 148/209/2 158/167/2 153/170/2 146/163/2
f 123/181/88 124/173/88 144/172/2 148/209/2
f 148/209/2 144/172/2 160/202/2 158/167/2
f 155/201/2 156/199/2 159/196/2 160/202/2
f 157/168/2 158/167/2 160/202/2 159/196/2
f 149/210/2 150/200/2 156/199/2 155/201/2
f 153/170/2 154/169/2 151/206/98 152/194/96
f 151/206/98 165/211/100 166/212/100 152/194/101
f 145/164/85 164/213/100 162/214/100 116/165/86
f 115/208/99 161/215/100 163/216/100 137/205/97
f 165/211/102 171/217/103 172/218/103 166/212/102
f 164/213/102 170/219/103 168/220/103 162/214/102
f 161/215/102 167/221/103 169/222/103 163/216/102
f 171/217/103 111/223/28 112/224/104 172/218/103
f 170/219/105 110/225/28 108/226/28 168/220/103
f 167/221/103 107/227/28 109/228/106 169/222/103
f 140/177/2 122/180/2 118/207/2 138/195/2
