# Blender 4.5.0
# www.blender.org
mtllib powercell inside face glass final.mtl
o Cylinder.001
v 0.000002 15.934236 -15.934237
v -0.000002 -15.934237 -15.934236
v -7.967116 15.934237 -13.799454
v -7.967121 -15.934237 -13.799452
v -13.799450 15.934238 -7.967119
v -13.799456 -15.934235 -7.967118
v -15.934234 15.934239 -0.000001
v -15.934239 -15.934234 0.000001
v -13.799450 15.934238 7.967118
v -13.799456 -15.934235 7.967119
v -7.967116 15.934238 13.799452
v -7.967121 -15.934235 13.799454
v 0.000002 15.934237 15.934236
v -0.000002 -15.934236 15.934237
v 7.967121 15.934237 13.799452
v 7.967116 -15.934237 13.799454
v 13.799456 15.934235 7.967118
v 13.799450 -15.934238 7.967119
v 15.934239 15.934234 -0.000001
v 15.934234 -15.934239 0.000001
v 13.799456 15.934235 -7.967119
v 13.799450 -15.934238 -7.967118
v 7.967121 15.934235 -13.799454
v 7.967116 -15.934238 -13.799452
v 0.000003 20.666914 -19.463190
v -9.731592 20.666916 -16.855618
v -16.855614 20.666916 -9.731596
v -19.463186 20.666918 -0.000001
v -16.855614 20.666916 9.731594
v -9.731592 20.666916 16.855618
v 0.000003 20.666914 19.463190
v 9.731598 20.666912 16.855618
v 16.855621 20.666912 9.731594
v 19.463194 20.666910 -0.000001
v 16.855621 20.666912 -9.731596
v 9.731598 20.666912 -16.855618
v -9.731598 -20.666912 -16.855654
v -0.000003 -20.666914 -19.463236
v -16.855621 -20.666912 -9.731617
v -19.463194 -20.666910 0.000001
v -16.855621 -20.666912 9.731619
v -9.731598 -20.666912 16.855654
v -0.000003 -20.666914 19.463236
v 9.731592 -20.666916 16.855654
v 16.855614 -20.666916 9.731619
v 19.463186 -20.666918 0.000001
v 16.855614 -20.666916 -9.731617
v 9.731592 -20.666916 -16.855654
v 0.000004 28.177691 -19.463192
v -9.731591 28.177692 -16.855619
v -16.855614 28.177692 -9.731596
v -17.956299 29.284796 1.509194
v -16.305208 29.284796 7.671152
v -9.731591 28.177692 16.855616
v 0.000004 28.177691 19.463188
v 9.731599 28.177689 16.855616
v 16.855621 28.177689 9.731594
v 19.463194 28.177687 -0.000001
v 16.855621 28.177689 -9.731596
v 9.731599 28.177689 -16.855619
v -9.731599 -28.177689 -16.855652
v -0.000004 -28.177691 -19.463234
v -16.855621 -28.177689 -9.731617
v -19.463194 -28.177687 0.000001
v -16.855621 -28.177689 9.731619
v -9.731599 -28.177689 16.855656
v -0.000004 -28.177691 19.463238
v 9.731591 -28.177692 16.855656
v 16.855614 -28.177692 9.731619
v 19.463186 -28.177694 0.000001
v 16.855614 -28.177692 -9.731617
v 9.731591 -28.177692 -16.855652
v 0.000006 37.125465 -10.552649
v -5.276322 37.125465 -9.138863
v -9.138863 37.125465 -5.276329
v -11.250757 36.018349 1.509194
v -10.498045 36.018349 4.318378
v -5.276322 37.125465 9.138859
v 0.000006 37.125465 10.552646
v 5.276333 37.125465 9.138859
v 9.138874 37.125465 5.276319
v 10.552661 37.125465 -0.000002
v 9.138874 37.125465 -5.276329
v 5.276333 37.125465 -9.138863
v -5.276333 -37.125465 -9.138882
v -0.000006 -37.125465 -10.552676
v -9.138874 -37.125465 -5.276334
v -10.552661 -37.125465 0.000002
v -9.138874 -37.125465 5.276337
v -5.276333 -37.125465 9.138885
v -0.000006 -37.125465 10.552680
v 5.276322 -37.125465 9.138885
v 9.138863 -37.125465 5.276337
v 10.552649 -37.125465 0.000002
v 9.138863 -37.125465 -5.276334
v 5.276322 -37.125465 -9.138882
v -7.445819 14.531611 -16.050652
v -7.948883 20.607414 -17.928106
v 1.577055 14.531612 17.623184
v 2.080121 20.607412 19.500639
v -1.577051 14.531610 -17.623184
v -2.080115 20.607412 -19.500639
v 7.445824 14.531611 16.050652
v 7.948890 20.607410 17.928106
v -1.577055 -14.324843 -17.623177
v -2.080121 -20.400644 -19.500639
v 7.445819 -14.324842 16.050644
v 7.948884 -20.400646 17.928106
v -7.445824 -14.324842 -16.050644
v -7.948889 -20.400642 -17.928106
v 1.577051 -14.324841 17.623177
v 2.080115 -20.400644 19.500639
v 0.000002 11.641263 -11.641265
v -0.000002 -11.641265 -11.641263
v -5.820630 11.641265 -10.081632
v -5.820634 -11.641263 -10.081630
v -10.081629 11.641266 -5.820632
v -10.081633 -11.641262 -5.820632
v -11.641262 11.641266 -0.000001
v -11.641266 -11.641262 0.000001
v -10.081629 11.641266 5.820632
v -10.081633 -11.641262 5.820632
v -5.820630 11.641265 10.081630
v -5.820634 -11.641263 10.081632
v 0.000002 11.641265 11.641263
v -0.000002 -11.641263 11.641265
v 5.820634 11.641263 10.081630
v 5.820630 -11.641265 10.081632
v 10.081633 11.641262 5.820632
v 10.081629 -11.641266 5.820632
v 11.641266 11.641262 -0.000001
v 11.641262 -11.641266 0.000001
v 10.081633 11.641262 -5.820632
v 10.081629 -11.641266 -5.820632
v 5.820634 11.641263 -10.081632
v 5.820630 -11.641265 -10.081630
v 16.050646 14.531609 -7.445822
v 17.928110 20.607410 -7.948887
v -17.623175 14.531614 1.577052
v -19.500635 20.607416 2.080117
v 17.623178 14.531609 -1.577053
v 19.500643 20.607409 -2.080119
v -16.050642 14.531614 7.445821
v -17.928102 20.607414 7.948885
v 17.623175 -14.505914 -1.577052
v 19.500628 -20.581707 -2.080117
v -16.050646 -14.505908 7.445822
v -17.928110 -20.581701 7.948887
v 16.050642 -14.505914 -7.445821
v 17.928102 -20.581705 -7.948885
v -17.623178 -14.505908 1.577053
v -19.500635 -20.581699 2.080119
v 0.000006 37.125458 -0.000002
v -0.000006 -37.125458 0.000002
v -19.463186 28.177694 -0.000001
v -16.855614 28.177692 9.731594
v -10.552649 37.125465 -0.000002
v -9.138863 37.125465 5.276319
v -16.168877 29.392321 1.030257
v -14.517782 29.392321 7.192208
v -9.351131 34.126621 1.000187
v -8.598410 34.126621 3.809371
vn -0.0000 -0.0000 1.0000
vn 0.5000 -0.0000 0.8660
vn 0.8660 -0.0000 0.5000
vn 1.0000 -0.0000 -0.0000
vn 0.8660 -0.0000 -0.5000
vn 0.5000 -0.0000 -0.8660
vn -0.0000 -0.0000 -1.0000
vn -0.5000 -0.0000 -0.8660
vn -0.8660 -0.0000 -0.5000
vn -1.0000 -0.0000 -0.0000
vn -0.8660 -0.0000 0.5000
vn 0.4008 0.5978 0.6943
vn -0.0000 0.5978 0.8017
vn -0.5000 -0.0000 0.8660
vn -0.6943 -0.5978 0.4008
vn -0.4008 -0.5978 0.6943
vn -0.8017 -0.5978 -0.0000
vn 0.4008 -0.5978 -0.6943
vn -0.0000 -0.5978 -0.8017
vn -0.4008 -0.5978 -0.6943
vn -0.6943 -0.5978 -0.4008
vn 0.6943 -0.5978 -0.4008
vn 0.8017 -0.5978 -0.0000
vn 0.6943 -0.5978 0.4008
vn 0.4008 -0.5978 0.6943
vn -0.0000 -0.5978 0.8017
vn -0.4008 0.5978 0.6943
vn -0.6943 0.5978 0.4008
vn -0.8017 0.5978 -0.0000
vn -0.0000 0.5978 -0.8017
vn 0.4008 0.5978 -0.6943
vn -0.4008 0.5978 -0.6943
vn -0.6943 0.5978 -0.4008
vn 0.6943 0.5978 -0.4008
vn 0.8017 0.5978 -0.0000
vn 0.6943 0.5978 0.4008
vn 0.3543 0.7056 0.6136
vn 0.6136 0.7056 0.3543
vn -0.3543 -0.7056 0.6136
vn -0.6136 -0.7056 0.3543
vn -0.0000 1.0000 -0.0000
vn -0.6136 0.7056 0.3543
vn -0.6137 0.7056 0.3543
vn -0.3543 0.7056 0.6136
vn 0.3543 0.7056 -0.6136
vn -0.0000 0.7056 -0.7086
vn -0.3543 0.7056 -0.6136
vn -0.6136 0.7056 -0.3543
vn 0.7086 0.7056 -0.0000
vn -0.0000 0.7056 0.7086
vn -0.7086 0.7056 -0.0000
vn 0.6136 0.7056 -0.3543
vn 0.1658 -0.1929 0.9671
vn -0.0000 -1.0000 -0.0000
vn -0.0000 -0.7056 -0.7086
vn 0.3543 -0.7056 -0.6136
vn -0.6136 -0.7056 -0.3543
vn -0.3543 -0.7056 -0.6136
vn 0.7086 -0.7056 -0.0000
vn 0.6136 -0.7056 0.3543
vn -0.0000 -0.7056 0.7086
vn -0.7086 -0.7056 -0.0000
vn 0.6136 -0.7056 -0.3543
vn 0.3543 -0.7056 0.6136
vn -0.9659 -0.0000 0.2588
vn 0.2465 -0.3047 0.9200
vn 0.9659 -0.0000 -0.2588
vn -0.2465 -0.3047 -0.9200
vn 0.2465 0.3047 0.9200
vn -0.2465 0.3047 -0.9200
vn -0.3536 -0.7071 -0.6124
vn -0.6124 -0.7071 -0.3536
vn -0.0000 0.7071 -0.7071
vn 0.3536 0.7071 -0.6124
vn -0.7071 -0.7071 -0.0000
vn -0.6124 -0.7071 0.3536
vn -0.3536 -0.7071 0.6124
vn -0.0000 -0.7071 0.7071
vn 0.3536 -0.7071 0.6124
vn 0.6124 -0.7071 0.3536
vn 0.7071 -0.7071 -0.0000
vn 0.6124 -0.7071 -0.3536
vn 0.3536 -0.7071 -0.6124
vn -0.0000 -0.7071 -0.7071
vn 0.6124 0.7071 -0.3536
vn 0.7071 0.7071 -0.0000
vn 0.6124 0.7071 0.3536
vn 0.3536 0.7071 0.6124
vn -0.0000 0.7071 0.7071
vn -0.3536 0.7071 0.6124
vn -0.6124 0.7071 0.3536
vn -0.7071 0.7071 -0.0000
vn -0.6124 0.7071 -0.3536
vn -0.3536 0.7071 -0.6124
vn -0.2588 -0.0000 -0.9659
vn -0.9200 -0.3047 0.2465
vn 0.2588 -0.0000 0.9659
vn 0.9200 -0.3047 -0.2465
vn -0.9200 0.3047 0.2465
vn 0.9200 0.3047 -0.2465
vn -0.6961 0.6932 0.1865
vn -0.5634 0.8123 0.1510
vn -0.6696 -0.7207 0.1794
vn -0.3400 -0.1929 -0.9204
vn -0.0560 0.9983 0.0150
vt 0.433279 0.001507
vt 0.433279 0.210041
vt 0.379307 0.210041
vt 0.379307 0.001507
vt 0.325334 0.210041
vt 0.325334 0.001507
vt 0.271361 0.210041
vt 0.271361 0.001507
vt 0.217389 0.210041
vt 0.217389 0.001507
vt 0.163416 0.210041
vt 0.163416 0.001507
vt 0.109443 0.210041
vt 0.109444 0.001507
vt 0.055471 0.210041
vt 0.055471 0.001507
vt 0.001498 0.210041
vt 0.001498 0.001507
vt 0.649170 0.001507
vt 0.649170 0.210041
vt 0.595198 0.210041
vt 0.595198 0.001507
vt 0.541225 0.210041
vt 0.541225 0.001507
vt 0.390224 0.350628
vt 0.363063 0.384500
vt 0.421192 0.424333
vt 0.443457 0.385914
vt 0.487252 0.210041
vt 0.487252 0.001507
vt 0.257568 0.316955
vt 0.246538 0.280127
vt 0.188790 0.302077
vt 0.205123 0.336977
vt 0.429622 0.267228
vt 0.436165 0.218693
vt 0.367622 0.213505
vt 0.368249 0.262523
vt 0.312301 0.304842
vt 0.306782 0.266849
vt 0.530441 0.337615
vt 0.546851 0.303120
vt 0.489586 0.280855
vt 0.478412 0.317447
vt 0.423922 0.305107
vt 0.368151 0.300871
vt 0.578837 0.365198
vt 0.600178 0.333655
vt 0.622277 0.399769
vt 0.648399 0.372366
vt 0.658409 0.442196
vt 0.692412 0.421344
vt 0.111301 0.399389
vt 0.084627 0.370033
vt 0.037200 0.417700
vt 0.071960 0.442162
vt 0.156050 0.364551
vt 0.134649 0.332219
vt 0.329345 0.430353
vt 0.395328 0.472684
vt 0.482907 0.453589
vt 0.498945 0.415116
vt 0.545053 0.473010
vt 0.554758 0.434845
vt 0.606436 0.482235
vt 0.609774 0.445434
vt 0.770857 0.421081
vt 0.784160 0.457025
vt 0.837397 0.432351
vt 0.820809 0.400505
vt 0.718171 0.437294
vt 0.726481 0.473977
vt 0.666908 0.482765
vt 0.664139 0.445538
vt 0.884598 0.402085
vt 0.864649 0.374504
vt 0.925298 0.366539
vt 0.901979 0.343653
vt 0.962244 0.324032
vt 0.932050 0.305971
vt 0.344836 0.305971
vt 0.308232 0.333121
vt 0.757191 0.287434
vt 0.777598 0.207388
vt 0.748963 0.189804
vt 0.691059 0.250171
vt 0.731071 0.384735
vt 0.681434 0.334695
vt 0.167328 0.257870
vt 0.107148 0.291536
vt 0.298986 0.218401
vt 0.626900 0.292423
vt 0.052358 0.333197
vt 0.231737 0.233296
vt 0.567157 0.258589
vt 0.503150 0.233835
vt 0.002122 0.380249
vt 0.100479 0.415407
vt 0.159009 0.471056
vt 0.187107 0.455903
vt 0.164610 0.377504
vt 0.534976 0.522690
vt 0.603773 0.531291
vt 0.860278 0.471649
vt 0.911620 0.436150
vt 0.737785 0.520376
vt 0.801717 0.500508
vt 0.268028 0.378507
vt 0.464908 0.503416
vt 0.671383 0.530657
vt 0.955375 0.395916
vt 0.994236 0.353002
vt 0.409457 0.963035
vt 0.360637 0.914197
vt 0.378497 0.980902
vt 0.930287 0.187570
vt 0.857755 0.165556
vt 0.840345 0.192532
vt 0.894570 0.250383
vt 0.691588 0.039422
vt 0.752205 0.098876
vt 0.781859 0.083062
vt 0.759502 0.001513
vt 0.837274 0.003514
vt 0.815053 0.083973
vt 0.842690 0.100833
vt 0.902541 0.045970
vt 0.733032 0.160381
vt 0.652167 0.183862
vt 0.811267 0.208667
vt 0.831452 0.286709
vt 0.858277 0.128027
vt 0.932341 0.116002
vt 0.734187 0.127026
vt 0.652167 0.106427
vt 0.813431 0.321992
vt 0.796531 0.322544
vt 0.807285 0.372840
vt 0.815527 0.380839
vt 0.688881 0.577504
vt 0.671009 0.644205
vt 0.719837 0.595376
vt 0.341297 0.550612
vt 0.263572 0.531752
vt 0.246993 0.559093
vt 0.305523 0.614741
vt 0.304876 0.415617
vt 0.247301 0.472023
vt 0.263934 0.499496
vt 0.340648 0.478575
vt 0.165717 0.652644
vt 0.186869 0.573181
vt 0.158701 0.558126
vt 0.101126 0.614531
vt 0.064705 0.479536
vt 0.142430 0.498397
vt 0.240285 0.377504
vt 0.219132 0.456968
vt 0.241392 0.652644
vt 0.218895 0.574246
vt 0.065354 0.551574
vt 0.142068 0.530652
vt 0.496697 0.613964
vt 0.456939 0.601246
vt 0.456939 0.854801
vt 0.496697 0.842082
vt 0.496697 0.883825
vt 0.536454 0.883824
vt 0.536454 0.842082
vt 0.377425 0.842082
vt 0.417182 0.854801
vt 0.417183 0.601246
vt 0.377425 0.613964
vt 0.417183 0.559504
vt 0.456939 0.559504
vt 0.536454 0.613964
vt 0.271364 0.697258
vt 0.284082 0.657501
vt 0.030528 0.657501
vt 0.043246 0.697258
vt 0.001504 0.697258
vt 0.001504 0.737015
vt 0.043246 0.737015
vt 0.030528 0.776772
vt 0.284082 0.776772
vt 0.271364 0.737015
vt 0.325824 0.776772
vt 0.284082 0.816529
vt 0.325824 0.816529
vt 0.030528 0.816529
vt 0.844123 0.877823
vt 0.844123 0.917255
vt 0.996476 0.917255
vt 0.996476 0.877822
vt 0.844123 0.956687
vt 0.996476 0.956687
vt 0.844123 0.483502
vt 0.844123 0.522934
vt 0.996476 0.522934
vt 0.996476 0.483502
vt 0.844123 0.562366
vt 0.996476 0.562366
vt 0.844123 0.601798
vt 0.996476 0.601798
vt 0.844123 0.641230
vt 0.996476 0.641230
vt 0.844123 0.680662
vt 0.996476 0.680662
vt 0.844123 0.720094
vt 0.996476 0.720094
vt 0.844123 0.759526
vt 0.996476 0.759526
vt 0.844123 0.798959
vt 0.996476 0.798958
vt 0.844123 0.838390
vt 0.996476 0.838390
vt 0.540653 0.721130
vt 0.572571 0.744785
vt 0.596230 0.696273
vt 0.557938 0.685688
vt 0.652548 0.782094
vt 0.641962 0.820385
vt 0.695737 0.825002
vt 0.691834 0.785467
vt 0.600847 0.642498
vt 0.561312 0.646401
vt 0.585805 0.590663
vt 0.550322 0.608531
vt 0.553117 0.547714
vt 0.526441 0.577153
vt 0.507164 0.519404
vt 0.492868 0.556470
vt 0.454102 0.509526
vt 0.454102 0.549254
vt 0.401041 0.519404
vt 0.415336 0.556470
vt 0.355088 0.547714
vt 0.381764 0.577153
vt 0.322401 0.590663
vt 0.357884 0.608531
vt 0.307358 0.642498
vt 0.346893 0.646401
vt 0.311975 0.696273
vt 0.350267 0.685688
vt 0.335634 0.744785
vt 0.367552 0.721130
vt 0.747571 0.809959
vt 0.729703 0.774477
vt 0.790520 0.777273
vt 0.761081 0.750597
vt 0.818829 0.731321
vt 0.781763 0.717025
vt 0.828707 0.678260
vt 0.788979 0.678260
vt 0.818829 0.625199
vt 0.781763 0.639494
vt 0.790520 0.579247
vt 0.761081 0.605923
vt 0.747571 0.546560
vt 0.729703 0.582042
vt 0.695737 0.531518
vt 0.691834 0.571052
vt 0.641963 0.536135
vt 0.652548 0.574426
vt 0.593452 0.559794
vt 0.617107 0.591711
vt 0.617107 0.764809
vt 0.593452 0.796726
vt 0.043245 0.861262
vt 0.030527 0.901018
vt 0.284080 0.901018
vt 0.271361 0.861262
vt 0.313102 0.861261
vt 0.313102 0.821505
vt 0.271361 0.821505
vt 0.271361 0.980532
vt 0.284080 0.940775
vt 0.030527 0.940775
vt 0.043245 0.980532
vt 0.043245 0.821505
vt 0.001504 0.821505
vt 0.001504 0.861262
vt 0.552177 0.828000
vt 0.539458 0.867757
vt 0.793012 0.867757
vt 0.780294 0.828000
vt 0.830878 0.855643
vt 0.818160 0.815886
vt 0.780294 0.947271
vt 0.793012 0.907514
vt 0.539458 0.907514
vt 0.552176 0.947271
vt 0.510435 0.947271
vt 0.510435 0.987027
vt 0.552177 0.987028
vt 0.780293 0.987028
vt 0.653136 0.577504
vt 0.622180 0.595376
vt 0.604308 0.626332
vt 0.604308 0.662077
vt 0.622180 0.693033
vt 0.653136 0.710905
vt 0.688881 0.710905
vt 0.719837 0.693033
vt 0.427335 0.932082
vt 0.427341 0.896337
vt 0.409474 0.865377
vt 0.378521 0.847499
vt 0.342776 0.847493
vt 0.311817 0.865359
vt 0.293939 0.896313
vt 0.293933 0.932058
vt 0.737709 0.626332
vt 0.342753 0.980896
vt 0.311799 0.963017
vt 0.737709 0.662077
vt 0.920858 0.174755
vt 0.921344 0.127864
vt 0.866491 0.134781
vt 0.868042 0.159363
vt 0.778510 0.322544
vt 0.767756 0.372840
vt 0.778510 0.305635
vt 0.796531 0.305635
vt 0.759513 0.380839
vt 0.761610 0.321992
vt 0.807285 0.384326
vt 0.767756 0.384326
s 1
f 1/1/1 3/4/2 4/3/2 2/2/1
f 3/4/2 5/6/3 6/5/3 4/3/2
f 5/6/3 7/8/4 8/7/4 6/5/3
f 7/8/4 9/10/5 10/9/5 8/7/4
f 9/10/5 11/12/6 12/11/6 10/9/5
f 11/12/6 13/14/7 14/13/7 12/11/6
f 13/14/7 15/16/8 16/15/8 14/13/7
f 15/16/8 17/18/9 18/17/9 16/15/8
f 17/19/9 19/22/10 20/21/10 18/20/9
f 19/22/10 21/24/11 22/23/11 20/21/10
f 16/25/12 14/28/13 43/27/13 44/26/12
f 21/24/11 23/30/14 24/29/14 22/23/11
f 23/30/14 1/1/1 2/2/1 24/29/14
f 9/31/15 11/34/16 30/33/16 29/32/15
f 26/35/8 27/38/9 51/37/9 50/36/8
f 7/39/17 9/31/15 29/32/15 28/40/17
f 23/41/18 1/44/19 25/43/19 36/42/18
f 1/44/19 3/45/20 26/35/20 25/43/19
f 5/46/21 7/39/17 28/40/17 27/38/21
f 21/47/22 23/41/18 36/42/18 35/48/22
f 3/45/20 5/46/21 27/38/21 26/35/20
f 19/49/23 21/47/22 35/48/22 34/50/23
f 17/51/24 19/49/23 34/50/23 33/52/24
f 15/53/25 17/56/24 33/55/24 32/54/25
f 13/57/26 15/53/25 32/54/25 31/58/26
f 11/34/16 13/57/26 31/58/26 30/33/16
f 44/26/2 43/27/1 67/60/1 68/59/2
f 14/28/13 12/62/27 42/61/27 43/27/13
f 12/62/27 10/64/28 41/63/28 42/61/27
f 10/64/28 8/66/29 40/65/29 41/63/28
f 2/67/30 24/70/31 48/69/31 38/68/30
f 4/71/32 2/67/30 38/68/30 37/72/32
f 8/66/29 6/74/33 39/73/33 40/65/29
f 24/70/31 22/76/34 47/75/34 48/69/31
f 6/74/33 4/71/32 37/72/32 39/73/33
f 22/76/34 20/78/35 46/77/35 47/75/34
f 20/78/35 18/80/36 45/79/36 46/77/35
f 18/81/36 16/25/12 44/26/12 45/82/36
f 56/83/37 57/86/38 81/85/38 80/84/37
f 33/52/3 34/50/4 58/88/4 57/87/3
f 30/33/14 31/58/1 55/90/1 54/89/14
f 27/38/9 28/40/10 155/91/10 51/37/9
f 34/50/4 35/48/5 59/92/5 58/88/4
f 31/58/1 32/54/2 56/93/2 55/90/1
f 28/40/10 29/32/11 156/94/11 155/91/10
f 35/48/5 36/42/6 60/95/6 59/92/5
f 25/43/7 26/35/8 50/36/8 49/96/7
f 32/54/2 33/55/3 57/97/3 56/93/2
f 29/32/11 30/33/14 54/89/14 156/94/11
f 36/42/6 25/43/7 49/96/7 60/95/6
f 66/98/39 65/101/40 89/100/40 90/99/39
f 41/63/11 40/65/10 64/103/10 65/102/11
f 48/69/6 47/75/5 71/105/5 72/104/6
f 37/72/8 38/68/7 62/107/7 61/106/8
f 45/82/3 44/26/2 68/59/2 69/108/3
f 42/61/14 41/63/11 65/102/11 66/109/14
f 38/68/7 48/69/6 72/104/6 62/107/7
f 39/73/9 37/72/8 61/106/8 63/110/9
f 46/77/4 45/79/3 69/112/3 70/111/4
f 43/27/1 42/61/14 66/109/14 67/60/1
f 40/65/10 39/73/9 63/110/9 64/103/10
f 47/75/5 46/77/4 70/111/4 71/105/5
f 81/113/41 82/115/41 153/114/41
f 156/116/42 54/119/44 78/118/44 158/117/43
f 60/120/45 49/123/46 73/122/46 84/121/45
f 50/124/47 51/127/48 75/126/48 74/125/47
f 57/86/38 58/129/49 82/128/49 81/85/38
f 54/119/44 55/131/50 79/130/50 78/118/44
f 51/127/48 155/133/51 157/132/51 75/126/48
f 58/129/49 59/135/52 83/134/52 82/128/49
f 55/131/50 56/83/37 80/84/37 79/130/50
f 76/136/53 52/139/53 159/138/53 161/137/53
f 59/135/52 60/120/45 84/121/45 83/134/52
f 49/123/46 50/124/47 74/125/47 73/122/46
f 90/140/54 89/142/54 154/141/54
f 62/143/55 72/146/56 96/145/56 86/144/55
f 63/147/57 61/150/58 85/149/58 87/148/57
f 70/151/59 69/154/60 93/153/60 94/152/59
f 67/155/61 66/98/39 90/99/39 91/156/61
f 64/157/62 63/147/57 87/148/57 88/158/62
f 71/159/63 70/151/59 94/152/59 95/160/63
f 68/161/64 67/155/61 91/156/61 92/162/64
f 65/101/40 64/157/62 88/158/62 89/100/40
f 72/146/56 71/159/63 95/160/63 96/145/56
f 61/150/58 62/143/55 86/144/55 85/149/58
f 69/154/60 68/161/64 92/162/64 93/153/60
f 97/163/65 99/166/65 100/165/65 98/164/65
f 99/166/66 103/169/66 104/168/66 100/167/66
f 103/170/67 101/173/67 102/172/67 104/171/67
f 101/174/68 97/175/68 98/164/68 102/172/68
f 99/166/54 97/163/54 101/176/54 103/169/54
f 104/171/41 102/172/41 98/164/41 100/165/41
f 105/177/67 107/180/67 108/179/67 106/178/67
f 107/180/69 111/183/69 112/182/69 108/181/69
f 111/183/65 109/186/65 110/185/65 112/184/65
f 109/187/70 105/189/70 106/188/70 110/185/70
f 107/180/41 105/177/41 109/186/41 111/183/41
f 112/184/54 110/185/54 106/188/54 108/190/54
f 113/191/7 114/194/7 116/193/8 115/192/8
f 115/192/8 116/193/8 118/196/9 117/195/9
f 117/197/9 118/200/9 120/199/10 119/198/10
f 119/198/10 120/199/10 122/202/11 121/201/11
f 121/201/11 122/202/11 124/204/14 123/203/14
f 123/203/14 124/204/14 126/206/1 125/205/1
f 125/205/1 126/206/1 128/208/2 127/207/2
f 127/207/2 128/208/2 130/210/3 129/209/3
f 129/209/3 130/210/3 132/212/4 131/211/4
f 131/211/4 132/212/4 134/214/5 133/213/5
f 133/213/5 134/214/5 136/216/6 135/215/6
f 135/215/6 136/216/6 114/194/7 113/191/7
f 115/217/71 117/220/72 5/219/72 3/218/71
f 114/221/73 136/224/74 24/223/74 2/222/73
f 117/220/72 119/226/75 7/225/75 5/219/72
f 119/226/75 121/228/76 9/227/76 7/225/75
f 121/228/76 123/230/77 11/229/77 9/227/76
f 123/230/77 125/232/78 13/231/78 11/229/77
f 125/232/78 127/234/79 15/233/79 13/231/78
f 127/234/79 129/236/80 17/235/80 15/233/79
f 129/236/80 131/238/81 19/237/81 17/235/80
f 131/238/81 133/240/82 21/239/82 19/237/81
f 133/240/82 135/242/83 23/241/83 21/239/82
f 135/242/83 113/244/84 1/243/84 23/241/83
f 113/244/84 115/246/71 3/245/71 1/243/84
f 136/224/74 134/248/85 22/247/85 24/223/74
f 134/248/85 132/250/86 20/249/86 22/247/85
f 132/250/86 130/252/87 18/251/87 20/249/86
f 130/252/87 128/254/88 16/253/88 18/251/87
f 128/254/88 126/256/89 14/255/89 16/253/88
f 126/256/89 124/258/90 12/257/90 14/255/89
f 124/258/90 122/260/91 10/259/91 12/257/90
f 122/260/91 120/262/92 8/261/92 10/259/91
f 120/262/92 118/264/93 6/263/93 8/261/92
f 118/264/93 116/266/94 4/265/94 6/263/93
f 116/267/94 114/221/73 2/222/73 4/268/94
f 137/269/95 139/272/95 140/271/95 138/270/95
f 139/272/96 143/275/96 144/274/96 140/273/96
f 143/276/97 141/279/97 142/278/97 144/277/97
f 141/280/98 137/269/98 138/282/98 142/281/98
f 138/270/41 140/271/41 144/277/41 142/278/41
f 139/272/54 137/269/54 141/280/54 143/275/54
f 145/283/97 147/286/97 148/285/97 146/284/97
f 147/286/99 151/288/99 152/287/99 148/285/99
f 151/289/95 149/292/95 150/291/95 152/290/95
f 149/292/100 145/295/100 146/294/100 150/293/100
f 147/296/41 145/295/41 149/292/41 151/289/41
f 146/284/54 148/285/54 152/290/54 150/291/54
f 91/297/54 90/140/54 154/141/54
f 92/298/54 91/297/54 154/141/54
f 93/299/54 92/298/54 154/141/54
f 94/300/54 93/299/54 154/141/54
f 95/301/54 94/300/54 154/141/54
f 96/302/54 95/301/54 154/141/54
f 86/303/54 96/302/54 154/141/54
f 85/304/54 86/303/54 154/141/54
f 80/305/41 81/113/41 153/114/41
f 79/306/41 80/305/41 153/114/41
f 78/307/41 79/306/41 153/114/41
f 158/308/41 78/307/41 153/114/41
f 157/309/41 158/308/41 153/114/41
f 75/310/41 157/309/41 153/114/41
f 74/311/41 75/310/41 153/114/41
f 73/312/41 74/311/41 153/114/41
f 89/142/54 88/313/54 154/141/54
f 82/115/41 83/314/41 153/114/41
f 83/314/41 84/315/41 153/114/41
f 84/315/41 73/312/41 153/114/41
f 88/313/54 87/316/54 154/141/54
f 87/316/54 85/304/54 154/141/54
f 53/317/101 52/318/101 155/133/51 156/116/42
f 76/319/101 77/320/101 158/117/43 157/132/51
f 77/320/101 53/317/101 156/116/42 158/117/43
f 52/318/101 76/319/101 157/132/51 155/133/51
f 159/138/102 160/322/102 162/321/102 161/137/102
f 77/323/103 76/324/103 161/137/103 162/321/103
f 53/325/104 77/326/104 162/321/104 160/322/104
f 52/327/105 53/328/105 160/322/105 159/138/105
